<svg version="1.1" id="Layer_1" xmlns="http://www.w3.org/2000/svg" xmlns:xlink="http://www.w3.org/1999/xlink" x="0px" y="0px"
	 width="100%" viewBox="0 0 200 200" enable-background="new 0 0 200 200" xml:space="preserve">
<path fill="#061A32" opacity="1.000000" stroke="none" 
	d="
M131.000000,201.000000 
	C88.500000,201.000000 46.499889,200.960526 4.500253,201.083679 
	C1.516973,201.092422 0.912635,200.482422 0.917552,197.499878 
	C1.025536,132.000061 1.000000,66.500015 1.000000,1.000010 
	C66.333321,1.000000 131.666702,1.034229 196.999771,0.903358 
	C200.424423,0.896498 201.103775,1.575354 201.096710,5.000167 
	C200.965057,68.999893 200.965088,133.000031 201.096710,196.999756 
	C201.103775,200.424408 200.429047,201.132843 196.999115,201.101501 
	C175.167603,200.902008 153.333344,201.000000 131.000000,201.000000 
z"/>
<path fill="#FBFCFC" opacity="1.000000" stroke="none" 
	d="
M77.898849,165.162659 
	C64.014580,159.862839 57.956833,149.828873 58.269554,135.588287 
	C58.411732,129.113693 57.840889,122.603172 59.916210,116.277168 
	C62.905392,107.165520 68.593422,100.747215 77.803635,97.575996 
	C88.634666,93.846695 99.453033,90.076752 110.225380,86.181984 
	C120.379585,82.510719 123.623199,77.356995 122.715530,66.860428 
	C122.022667,58.848042 116.576141,53.695259 106.933601,52.265003 
	C102.811134,51.653526 98.598946,51.668858 94.474754,52.327946 
	C85.598701,53.746426 81.791031,57.331799 79.853371,66.254639 
	C79.291382,68.842590 78.290421,69.945236 75.557625,69.831406 
	C71.066780,69.644341 66.556419,69.635254 62.065998,69.826317 
	C58.841236,69.963524 57.751804,68.833481 57.694977,65.530304 
	C57.421154,49.614082 66.614052,37.962875 82.202705,35.049988 
	C95.765945,32.515564 109.343971,31.884285 122.733131,36.000591 
	C136.622925,40.270813 144.152908,50.415062 144.204803,64.890015 
	C144.287247,87.883438 144.232742,110.877365 144.226639,133.871078 
	C144.221420,153.562881 136.606049,163.352219 117.175316,167.368790 
	C104.136780,170.064011 91.031693,169.790009 77.898849,165.162659 
z"/>
<path fill="#081B33" opacity="1.000000" stroke="none" 
	d="
M81.858337,141.829666 
	C76.521294,127.679535 80.927124,118.148560 94.783424,113.295113 
	C101.351242,110.994598 107.949257,108.780243 114.534744,106.530235 
	C117.336769,105.572876 120.041649,104.427231 122.803711,101.896683 
	C122.803711,113.401123 123.256805,124.288628 122.656654,135.117767 
	C122.197693,143.399353 117.814468,147.495560 109.652184,149.241928 
	C103.720894,150.510956 97.775635,150.397034 91.848961,149.083450 
	C87.606567,148.143158 84.089249,146.198975 81.858337,141.829666 
z"/>
</svg>