<svg version="1.1" id="Layer_1" xmlns="http://www.w3.org/2000/svg" xmlns:xlink="http://www.w3.org/1999/xlink" x="0px" y="0px"
	 width="100%" viewBox="0 0 800 800" enable-background="new 0 0 800 800" xml:space="preserve">
<path fill="#FFD300" opacity="1.000000" stroke="none" 
	d="
M1.000000,303.000000 
	C1.000000,202.000000 1.000000,101.500000 1.000000,1.000000 
	C267.666656,1.000000 534.333313,1.000000 801.000000,1.000000 
	C801.000000,267.666656 801.000000,534.333313 801.000000,801.000000 
	C534.333313,801.000000 267.666656,801.000000 1.000000,801.000000 
	C1.000000,635.166687 1.000000,469.333344 1.000000,303.000000 
M435.771942,577.763062 
	C435.476318,576.522705 435.180695,575.282410 433.962830,574.004944 
	C411.131683,574.004944 388.300537,574.004944 364.742828,574.004944 
	C365.845917,576.464661 366.339539,577.809326 367.021820,579.050293 
	C377.389038,597.906433 387.765961,616.757446 398.209625,635.571228 
	C398.754852,636.553528 400.022125,637.927612 400.767670,637.820984 
	C401.896576,637.659607 403.238281,636.569519 403.839569,635.506409 
	C410.291412,624.098755 416.676636,612.652222 422.952972,601.146973 
	C427.130402,593.489319 431.102600,585.719727 435.771942,577.763062 
M438.917175,258.019806 
	C521.078552,258.013214 603.239990,257.976166 685.401184,258.085693 
	C689.719238,258.091461 691.151489,256.997437 691.099854,252.510300 
	C690.869873,232.514191 691.006165,212.513962 690.996338,192.515213 
	C690.993347,186.509613 690.477112,186.002884 684.374512,186.002777 
	C495.553040,185.999390 306.731567,185.999603 117.910118,186.001709 
	C111.430550,186.001785 111.004921,186.414398 111.002617,192.730515 
	C110.995461,212.395950 111.177109,232.064056 110.879204,251.724976 
	C110.801826,256.832245 112.271851,258.120880 117.314163,258.111023 
	C197.808792,257.953430 278.303833,258.000000 358.798767,258.000000 
	C360.745026,258.000000 362.691254,258.000000 365.000000,258.000000 
	C365.000000,260.455261 365.000000,262.421906 365.000000,264.388580 
	C365.000000,360.549194 365.030884,456.709839 364.906616,552.870300 
	C364.900574,557.556702 365.979309,559.188904 370.959290,559.117310 
	C390.787292,558.832397 410.621796,559.000793 430.453888,558.999512 
	C436.996613,558.999146 436.999542,558.996643 436.999573,552.458984 
	C437.000214,456.631683 436.998993,360.804352 437.006958,264.977051 
	C437.007111,262.981079 437.111115,260.985107 437.481262,258.757568 
	C437.680237,258.586212 437.849335,258.389252 438.917175,258.019806 
M184.585632,409.023376 
	C185.009689,409.192017 185.655502,409.238098 185.826202,409.546814 
	C198.524414,432.513885 211.230560,455.476837 223.832443,478.496857 
	C232.003372,493.422760 239.938171,508.477997 248.120865,523.397339 
	C260.359833,545.712463 272.744934,567.947388 285.026794,590.239014 
	C292.771698,604.295898 300.408661,618.412415 308.152802,632.469727 
	C320.512115,654.904968 332.910278,677.318848 345.312103,699.730652 
	C351.592194,711.079590 357.998840,722.359619 364.157227,733.773926 
	C365.542206,736.340881 367.192596,737.075867 369.988495,737.060425 
	C390.319794,736.947937 410.652252,736.948364 430.983704,737.045288 
	C434.864075,737.063843 437.619110,735.896729 439.008545,732.093567 
	C439.562744,730.576660 440.277008,729.102234 441.061340,727.687744 
	C453.248505,705.708191 465.519562,683.774902 477.643463,661.760620 
	C485.931976,646.710510 493.925568,631.497925 502.225555,616.454285 
	C514.052734,595.017456 526.102234,573.703247 537.933899,552.268860 
	C544.433289,540.494385 550.571960,528.520935 557.065796,516.743347 
	C568.807556,495.448090 580.732727,474.254089 592.505371,452.975800 
	C600.195068,439.077087 607.730042,425.092804 615.409546,411.188446 
	C615.971252,410.171509 617.144836,409.492554 619.000000,407.748047 
	C619.000000,411.201477 619.000000,413.167389 619.000000,415.133301 
	C619.000000,520.459290 619.026367,625.785339 618.909302,731.111206 
	C618.904297,735.604370 619.900208,737.181763 624.700012,737.114197 
	C644.194824,736.839600 663.696838,736.879333 683.193726,737.065063 
	C690.078430,737.130554 691.064270,736.115540 691.060547,729.165222 
	C690.980896,579.342407 691.000061,429.519470 691.000000,279.696564 
	C691.000000,278.863281 690.921326,278.021240 691.013245,277.198242 
	C691.388611,273.837677 689.769653,272.936096 686.609131,272.950165 
	C665.111084,273.045990 643.612061,272.955627 622.114563,273.101837 
	C620.697449,273.111481 618.678406,274.220795 617.975708,275.423889 
	C612.578918,284.664124 607.363647,294.013275 602.235840,303.407074 
	C594.082703,318.343201 586.134949,333.391846 577.929932,348.299164 
	C565.811829,370.316284 553.484253,392.218170 541.361206,414.232635 
	C533.073181,429.282990 525.064819,444.487305 516.783508,459.541443 
	C503.189423,484.253448 489.433655,508.876556 475.827087,533.581726 
	C467.458405,548.776672 459.293945,564.084045 450.942322,579.288452 
	C436.580872,605.433960 422.168518,631.551636 407.713837,657.645691 
	C405.613403,661.437439 403.161133,665.034363 400.618225,669.129517 
	C390.303406,650.264038 380.346375,632.063599 370.399780,613.857483 
	C362.862579,600.061462 355.386780,586.231689 347.797760,572.464233 
	C335.825073,550.744324 323.747894,529.082031 311.777527,507.360779 
	C303.717621,492.735291 295.813629,478.023956 287.754181,463.398254 
	C275.863251,441.819580 263.850616,420.307922 251.976730,398.719940 
	C243.538223,383.377869 235.324966,367.911713 226.865189,352.581543 
	C213.078613,327.598480 199.092789,302.724915 185.413818,277.683472 
	C183.609039,274.379578 181.714386,272.914032 177.945679,272.938019 
	C157.447937,273.068451 136.947418,273.131897 116.451515,272.897827 
	C111.908905,272.845978 110.915855,274.375244 110.918610,278.636902 
	C111.015930,429.292999 111.013870,579.949158 110.935143,730.605286 
	C110.932701,735.273499 112.423462,737.117310 117.246643,737.074219 
	C137.077011,736.896851 156.912567,736.822327 176.740005,737.121582 
	C181.867630,737.198914 183.116211,735.692688 183.109268,730.670959 
	C182.964478,625.845093 182.998810,521.018982 183.009872,416.192963 
	C183.010071,414.370117 183.157700,412.547272 183.667694,409.970428 
	C183.777451,409.702515 183.887192,409.434570 184.585632,409.023376 
M182.500000,132.000000 
	C209.494186,131.999985 236.488388,132.004730 263.482574,131.996323 
	C269.490173,131.994446 269.983673,131.477646 269.997986,125.378464 
	C270.008179,121.046074 269.677338,116.683037 270.084473,112.389221 
	C270.557007,107.405251 268.987183,105.851936 263.795135,105.879791 
	C223.304825,106.097145 182.812851,106.000000 142.321381,105.999992 
	C140.579041,105.999992 138.836716,105.999992 137.239349,105.999992 
	C137.239349,100.611946 137.239349,95.997803 137.239349,91.000000 
	C139.266174,91.000000 141.059418,91.000000 142.852661,91.000000 
	C183.177490,91.000000 223.502579,90.932724 263.826782,91.092087 
	C268.443451,91.110336 270.559753,90.159988 270.094238,85.078659 
	C269.655212,80.286568 269.737732,75.404129 270.077606,70.595840 
	C270.385345,66.242180 268.974243,64.891220 264.504303,64.905037 
	C215.515106,65.056480 166.525253,64.997337 117.535576,65.003426 
	C111.508156,65.004173 111.004402,65.516243 111.003090,71.603378 
	C110.996391,102.596840 111.091591,133.590790 110.925133,164.583374 
	C110.890541,171.023376 112.335892,172.100311 118.222771,172.071533 
	C149.382126,171.919159 180.542618,172.000000 211.702713,172.000000 
	C229.532288,172.000000 247.362610,171.914139 265.190826,172.070114 
	C268.892609,172.102509 270.255920,170.970703 270.065430,167.219147 
	C269.803802,162.066864 269.681549,156.865784 270.092896,151.733185 
	C270.475952,146.953552 268.678802,145.884521 264.139679,145.903152 
	C223.648895,146.069443 183.157150,146.000000 142.665680,146.000000 
	C140.889145,146.000000 139.112610,146.000000 137.294434,146.000000 
	C137.294434,141.071457 137.294434,136.675751 137.294434,132.000000 
	C152.224701,132.000000 166.862350,132.000000 182.500000,132.000000 
M501.944153,457.387634 
	C504.763580,452.288940 507.796112,447.293457 510.331940,442.057434 
	C512.207336,438.185120 515.398560,433.579102 514.636414,430.021210 
	C509.387421,405.516785 503.231445,381.207123 497.411377,356.824280 
	C494.557373,344.867432 491.842163,332.877411 488.984131,320.921570 
	C485.449982,306.137390 481.741882,291.393982 478.329498,276.582153 
	C477.661285,273.681732 476.381256,272.872650 473.617065,272.951691 
	C467.958557,273.113495 462.278046,273.245300 456.633636,272.920135 
	C452.344330,272.673065 450.892914,273.926300 450.903534,278.452820 
	C451.047241,339.747711 450.995300,401.043091 451.025696,462.338318 
	C451.026489,463.955627 451.284149,465.600403 451.634399,467.185425 
	C453.728516,476.662842 455.802734,486.145966 458.044952,495.588898 
	C460.071869,504.125183 462.305145,512.612488 464.447418,521.121399 
	C465.053772,521.295837 465.660126,521.470215 466.266479,521.644653 
	C478.355560,500.629181 489.699127,479.182281 501.944153,457.387634 
M351.000000,301.500000 
	C350.999908,293.501282 350.857544,285.498871 351.064758,277.505524 
	C351.156830,273.954498 349.869110,272.806030 346.415009,272.942322 
	C340.924469,273.158997 335.382935,273.388153 329.931244,272.879822 
	C325.395599,272.456940 323.861938,274.496552 322.988098,278.365845 
	C318.031525,300.313354 313.060059,322.258240 307.923309,344.164093 
	C301.347107,372.208405 294.551941,400.201538 288.042023,428.260986 
	C287.478149,430.691498 287.545776,433.870422 288.665588,435.991272 
	C295.550629,449.030914 302.857605,461.847046 309.956848,474.774536 
	C317.995392,489.412476 325.941620,504.101196 334.005554,518.725037 
	C334.602234,519.807068 335.824677,520.544067 337.567505,522.223022 
	C340.662323,508.807343 343.146149,496.467896 346.413330,484.339508 
	C349.414673,473.198029 351.176727,462.089508 351.113647,450.474823 
	C350.845886,401.151123 351.000000,351.825134 351.000000,301.500000 
M691.000000,101.500000 
	C691.000000,93.667641 690.997498,85.835281 691.000488,78.002922 
	C691.006042,63.547962 692.358582,65.521950 677.874329,64.808151 
	C669.012512,64.371429 663.904602,66.853088 659.096436,74.938744 
	C644.772705,99.025986 629.147949,122.340271 613.964172,145.913193 
	C613.177429,147.134659 611.766113,147.953781 610.757874,148.859375 
	C609.710083,147.495377 608.836975,146.524048 608.147095,145.436508 
	C591.742798,119.575905 575.390137,93.682335 558.881409,67.888680 
	C557.996277,66.505768 555.868408,65.222694 554.248657,65.130531 
	C548.434937,64.799736 542.590820,65.027901 536.758545,64.990585 
	C533.422302,64.969246 531.986023,66.615822 531.988098,69.881836 
	C532.008667,102.544029 532.037598,135.206360 531.945679,167.868301 
	C531.936035,171.297607 533.358459,172.137451 536.456726,172.046829 
	C542.117737,171.881241 547.793518,171.836670 553.450623,172.059769 
	C556.950684,172.197800 558.091431,170.959671 558.062988,167.459686 
	C557.923889,150.296494 557.999939,133.131561 558.000000,115.967232 
	C558.000000,114.375618 558.000000,112.784012 558.000000,111.192398 
	C558.523499,110.938843 559.046997,110.685295 559.570496,110.431740 
	C560.816406,112.197250 562.130554,113.918907 563.297668,115.735023 
	C574.690491,133.462677 586.007507,151.239578 597.527222,168.884216 
	C598.492188,170.362198 600.726746,171.753403 602.452026,171.858246 
	C608.429199,172.221481 614.454895,172.216965 620.432983,171.861694 
	C622.162659,171.758911 624.355164,170.401016 625.372742,168.945450 
	C629.453857,163.107559 633.162598,157.008972 636.998535,151.000122 
	C644.673279,138.977768 652.316223,126.935066 660.041382,114.945282 
	C661.077393,113.337349 662.513977,111.987564 663.765076,110.518265 
	C664.176697,110.804947 664.588379,111.091629 665.000000,111.378311 
	C665.000000,113.033730 665.000000,114.689140 665.000000,116.344551 
	C665.000061,133.175583 665.097595,150.007614 664.925781,166.836899 
	C664.886841,170.647354 665.783875,172.330917 669.929077,172.078522 
	C675.242004,171.755066 680.601685,171.779709 685.918091,172.072754 
	C689.857117,172.289856 691.117126,171.009247 691.083862,166.990494 
	C690.906067,145.494904 691.000000,123.997063 691.000000,101.500000 
M259.500000,737.000000 
	C266.831329,737.000000 274.172455,736.772705 281.490173,737.088562 
	C285.630249,737.267273 287.185913,735.732056 288.094116,731.773804 
	C293.231140,709.385071 298.554108,687.037415 304.049835,664.733887 
	C305.302277,659.651001 305.277069,655.232422 302.355072,650.632080 
	C298.713257,644.898254 295.635956,638.802368 292.382294,632.826111 
	C282.230133,614.179077 272.135956,595.500305 261.951660,576.870850 
	C260.224823,573.712158 258.163422,570.736267 256.009125,567.278687 
	C254.997375,568.636902 254.257492,569.211731 254.086716,569.923096 
	C252.009674,578.575378 250.045319,587.254578 247.995850,595.913574 
	C241.698502,622.520020 235.356461,649.115906 229.071640,675.725281 
	C224.683044,694.306274 220.398956,712.911926 215.977036,731.484924 
	C215.006454,735.561523 215.835846,737.213928 220.512909,737.102966 
	C233.168961,736.802551 245.836823,737.000000 259.500000,737.000000 
M497.050079,661.122742 
	C498.530457,667.085205 500.067566,673.034302 501.480530,679.012695 
	C505.683258,696.794617 509.740784,714.612000 514.156250,732.340576 
	C514.607422,734.152222 517.071655,736.777771 518.632568,736.799438 
	C539.943665,737.095276 561.260254,737.000854 582.575439,736.996277 
	C585.701172,736.995605 586.894897,735.712585 586.054626,732.442383 
	C584.245911,725.402832 582.653381,718.307190 581.006897,711.226440 
	C574.889099,684.916504 568.797974,658.600464 562.671814,632.292480 
	C558.453918,614.179443 554.229614,596.067688 549.923462,577.975525 
	C549.102844,574.527954 547.886108,571.174683 546.750549,567.444031 
	C545.511963,568.276062 544.948730,568.451233 544.739197,568.824707 
	C538.064758,580.723633 531.386475,592.620667 524.789673,604.562622 
	C517.817261,617.184387 510.776276,629.772278 504.070892,642.535522 
	C501.118683,648.154785 496.227966,653.109558 497.050079,661.122742 
M402.500000,100.000000 
	C391.510071,100.000061 380.516602,100.156174 369.532257,99.908157 
	C366.092468,99.830498 364.697815,101.409218 364.047089,104.226097 
	C359.241425,125.029121 354.614227,145.874847 349.594299,166.625702 
	C348.589691,170.778275 349.401093,172.089203 353.526276,172.033997 
	C362.016968,171.920380 370.510284,171.999985 379.002502,172.000000 
	C401.814972,172.000015 424.627411,172.004898 447.439880,171.996674 
	C453.441742,171.994507 453.468750,171.919495 452.069000,166.250427 
	C451.331696,163.264282 450.707123,160.250504 450.003174,157.255890 
	C445.821777,139.467651 441.576355,121.694138 437.496002,103.882782 
	C436.754211,100.644691 435.109467,99.859428 431.972351,99.926613 
	C422.485413,100.129784 412.991302,100.000015 402.500000,100.000000 
z"/>
<path fill="#01448F" opacity="1.000000" stroke="none" 
	d="
M183.236542,410.724426 
	C183.157700,412.547272 183.010071,414.370117 183.009872,416.192963 
	C182.998810,521.018982 182.964478,625.845093 183.109268,730.670959 
	C183.116211,735.692688 181.867630,737.198914 176.740005,737.121582 
	C156.912567,736.822327 137.077011,736.896851 117.246643,737.074219 
	C112.423462,737.117310 110.932701,735.273499 110.935143,730.605286 
	C111.013870,579.949158 111.015930,429.292999 110.918610,278.636902 
	C110.915855,274.375244 111.908905,272.845978 116.451515,272.897827 
	C136.947418,273.131897 157.447937,273.068451 177.945679,272.938019 
	C181.714386,272.914032 183.609039,274.379578 185.413818,277.683472 
	C199.092789,302.724915 213.078613,327.598480 226.865189,352.581543 
	C235.324966,367.911713 243.538223,383.377869 251.976730,398.719940 
	C263.850616,420.307922 275.863251,441.819580 287.754181,463.398254 
	C295.813629,478.023956 303.717621,492.735291 311.777527,507.360779 
	C323.747894,529.082031 335.825073,550.744324 347.797760,572.464233 
	C355.386780,586.231689 362.862579,600.061462 370.399780,613.857483 
	C380.346375,632.063599 390.303406,650.264038 400.618225,669.129517 
	C403.161133,665.034363 405.613403,661.437439 407.713837,657.645691 
	C422.168518,631.551636 436.580872,605.433960 450.942322,579.288452 
	C459.293945,564.084045 467.458405,548.776672 475.827087,533.581726 
	C489.433655,508.876556 503.189423,484.253448 516.783508,459.541443 
	C525.064819,444.487305 533.073181,429.282990 541.361206,414.232635 
	C553.484253,392.218170 565.811829,370.316284 577.929932,348.299164 
	C586.134949,333.391846 594.082703,318.343201 602.235840,303.407074 
	C607.363647,294.013275 612.578918,284.664124 617.975708,275.423889 
	C618.678406,274.220795 620.697449,273.111481 622.114563,273.101837 
	C643.612061,272.955627 665.111084,273.045990 686.609131,272.950165 
	C689.769653,272.936096 691.388611,273.837677 691.013245,277.198242 
	C690.921326,278.021240 691.000000,278.863281 691.000000,279.696564 
	C691.000061,429.519470 690.980896,579.342407 691.060547,729.165222 
	C691.064270,736.115540 690.078430,737.130554 683.193726,737.065063 
	C663.696838,736.879333 644.194824,736.839600 624.700012,737.114197 
	C619.900208,737.181763 618.904297,735.604370 618.909302,731.111206 
	C619.026367,625.785339 619.000000,520.459290 619.000000,415.133301 
	C619.000000,413.167389 619.000000,411.201477 619.000000,407.748047 
	C617.144836,409.492554 615.971252,410.171509 615.409546,411.188446 
	C607.730042,425.092804 600.195068,439.077087 592.505371,452.975800 
	C580.732727,474.254089 568.807556,495.448090 557.065796,516.743347 
	C550.571960,528.520935 544.433289,540.494385 537.933899,552.268860 
	C526.102234,573.703247 514.052734,595.017456 502.225555,616.454285 
	C493.925568,631.497925 485.931976,646.710510 477.643463,661.760620 
	C465.519562,683.774902 453.248505,705.708191 441.061340,727.687744 
	C440.277008,729.102234 439.562744,730.576660 439.008545,732.093567 
	C437.619110,735.896729 434.864075,737.063843 430.983704,737.045288 
	C410.652252,736.948364 390.319794,736.947937 369.988495,737.060425 
	C367.192596,737.075867 365.542206,736.340881 364.157227,733.773926 
	C357.998840,722.359619 351.592194,711.079590 345.312103,699.730652 
	C332.910278,677.318848 320.512115,654.904968 308.152802,632.469727 
	C300.408661,618.412415 292.771698,604.295898 285.026794,590.239014 
	C272.744934,567.947388 260.359833,545.712463 248.120865,523.397339 
	C239.938171,508.477997 232.003372,493.422760 223.832443,478.496857 
	C211.230560,455.476837 198.524414,432.513885 185.826202,409.546814 
	C185.655502,409.238098 185.009689,409.192017 184.001678,409.078735 
	C183.357330,409.664215 183.296936,410.194336 183.236542,410.724426 
z"/>
<path fill="#01448F" opacity="1.000000" stroke="none" 
	d="
M437.166656,258.989136 
	C437.111115,260.985107 437.007111,262.981079 437.006958,264.977051 
	C436.998993,360.804352 437.000214,456.631683 436.999573,552.458984 
	C436.999542,558.996643 436.996613,558.999146 430.453888,558.999512 
	C410.621796,559.000793 390.787292,558.832397 370.959290,559.117310 
	C365.979309,559.188904 364.900574,557.556702 364.906616,552.870300 
	C365.030884,456.709839 365.000000,360.549194 365.000000,264.388580 
	C365.000000,262.421906 365.000000,260.455261 365.000000,258.000000 
	C362.691254,258.000000 360.745026,258.000000 358.798767,258.000000 
	C278.303833,258.000000 197.808792,257.953430 117.314163,258.111023 
	C112.271851,258.120880 110.801826,256.832245 110.879204,251.724976 
	C111.177109,232.064056 110.995461,212.395950 111.002617,192.730515 
	C111.004921,186.414398 111.430550,186.001785 117.910118,186.001709 
	C306.731567,185.999603 495.553040,185.999390 684.374512,186.002777 
	C690.477112,186.002884 690.993347,186.509613 690.996338,192.515213 
	C691.006165,212.513962 690.869873,232.514191 691.099854,252.510300 
	C691.151489,256.997437 689.719238,258.091461 685.401184,258.085693 
	C603.239990,257.976166 521.078552,258.013214 438.191467,258.056396 
	C437.366089,258.391693 437.266388,258.690399 437.166656,258.989136 
z"/>
<path fill="#01448F" opacity="1.000000" stroke="none" 
	d="
M182.000000,132.000000 
	C166.862350,132.000000 152.224701,132.000000 137.294434,132.000000 
	C137.294434,136.675751 137.294434,141.071457 137.294434,146.000000 
	C139.112610,146.000000 140.889145,146.000000 142.665680,146.000000 
	C183.157150,146.000000 223.648895,146.069443 264.139679,145.903152 
	C268.678802,145.884521 270.475952,146.953552 270.092896,151.733185 
	C269.681549,156.865784 269.803802,162.066864 270.065430,167.219147 
	C270.255920,170.970703 268.892609,172.102509 265.190826,172.070114 
	C247.362610,171.914139 229.532288,172.000000 211.702713,172.000000 
	C180.542618,172.000000 149.382126,171.919159 118.222771,172.071533 
	C112.335892,172.100311 110.890541,171.023376 110.925133,164.583374 
	C111.091591,133.590790 110.996391,102.596840 111.003090,71.603378 
	C111.004402,65.516243 111.508156,65.004173 117.535576,65.003426 
	C166.525253,64.997337 215.515106,65.056480 264.504303,64.905037 
	C268.974243,64.891220 270.385345,66.242180 270.077606,70.595840 
	C269.737732,75.404129 269.655212,80.286568 270.094238,85.078659 
	C270.559753,90.159988 268.443451,91.110336 263.826782,91.092087 
	C223.502579,90.932724 183.177490,91.000000 142.852661,91.000000 
	C141.059418,91.000000 139.266174,91.000000 137.239349,91.000000 
	C137.239349,95.997803 137.239349,100.611946 137.239349,105.999992 
	C138.836716,105.999992 140.579041,105.999992 142.321381,105.999992 
	C182.812851,106.000000 223.304825,106.097145 263.795135,105.879791 
	C268.987183,105.851936 270.557007,107.405251 270.084473,112.389221 
	C269.677338,116.683037 270.008179,121.046074 269.997986,125.378464 
	C269.983673,131.477646 269.490173,131.994446 263.482574,131.996323 
	C236.488388,132.004730 209.494186,131.999985 182.000000,132.000000 
z"/>
<path fill="#01448F" opacity="1.000000" stroke="none" 
	d="
M501.722076,457.693817 
	C489.699127,479.182281 478.355560,500.629181 466.266479,521.644653 
	C465.660126,521.470215 465.053772,521.295837 464.447418,521.121399 
	C462.305145,512.612488 460.071869,504.125183 458.044952,495.588898 
	C455.802734,486.145966 453.728516,476.662842 451.634399,467.185425 
	C451.284149,465.600403 451.026489,463.955627 451.025696,462.338318 
	C450.995300,401.043091 451.047241,339.747711 450.903534,278.452820 
	C450.892914,273.926300 452.344330,272.673065 456.633636,272.920135 
	C462.278046,273.245300 467.958557,273.113495 473.617065,272.951691 
	C476.381256,272.872650 477.661285,273.681732 478.329498,276.582153 
	C481.741882,291.393982 485.449982,306.137390 488.984131,320.921570 
	C491.842163,332.877411 494.557373,344.867432 497.411377,356.824280 
	C503.231445,381.207123 509.387421,405.516785 514.636414,430.021210 
	C515.398560,433.579102 512.207336,438.185120 510.331940,442.057434 
	C507.796112,447.293457 504.763580,452.288940 501.722076,457.693817 
z"/>
<path fill="#01448F" opacity="1.000000" stroke="none" 
	d="
M351.000000,302.000000 
	C351.000000,351.825134 350.845886,401.151123 351.113647,450.474823 
	C351.176727,462.089508 349.414673,473.198029 346.413330,484.339508 
	C343.146149,496.467896 340.662323,508.807343 337.567505,522.223022 
	C335.824677,520.544067 334.602234,519.807068 334.005554,518.725037 
	C325.941620,504.101196 317.995392,489.412476 309.956848,474.774536 
	C302.857605,461.847046 295.550629,449.030914 288.665588,435.991272 
	C287.545776,433.870422 287.478149,430.691498 288.042023,428.260986 
	C294.551941,400.201538 301.347107,372.208405 307.923309,344.164093 
	C313.060059,322.258240 318.031525,300.313354 322.988098,278.365845 
	C323.861938,274.496552 325.395599,272.456940 329.931244,272.879822 
	C335.382935,273.388153 340.924469,273.158997 346.415009,272.942322 
	C349.869110,272.806030 351.156830,273.954498 351.064758,277.505524 
	C350.857544,285.498871 350.999908,293.501282 351.000000,302.000000 
z"/>
<path fill="#01448F" opacity="1.000000" stroke="none" 
	d="
M691.000000,102.000000 
	C691.000000,123.997063 690.906067,145.494904 691.083862,166.990494 
	C691.117126,171.009247 689.857117,172.289856 685.918091,172.072754 
	C680.601685,171.779709 675.242004,171.755066 669.929077,172.078522 
	C665.783875,172.330917 664.886841,170.647354 664.925781,166.836899 
	C665.097595,150.007614 665.000061,133.175583 665.000000,116.344551 
	C665.000000,114.689140 665.000000,113.033730 665.000000,111.378311 
	C664.588379,111.091629 664.176697,110.804947 663.765076,110.518265 
	C662.513977,111.987564 661.077393,113.337349 660.041382,114.945282 
	C652.316223,126.935066 644.673279,138.977768 636.998535,151.000122 
	C633.162598,157.008972 629.453857,163.107559 625.372742,168.945450 
	C624.355164,170.401016 622.162659,171.758911 620.432983,171.861694 
	C614.454895,172.216965 608.429199,172.221481 602.452026,171.858246 
	C600.726746,171.753403 598.492188,170.362198 597.527222,168.884216 
	C586.007507,151.239578 574.690491,133.462677 563.297668,115.735023 
	C562.130554,113.918907 560.816406,112.197250 559.570496,110.431740 
	C559.046997,110.685295 558.523499,110.938843 558.000000,111.192398 
	C558.000000,112.784012 558.000000,114.375618 558.000000,115.967232 
	C557.999939,133.131561 557.923889,150.296494 558.062988,167.459686 
	C558.091431,170.959671 556.950684,172.197800 553.450623,172.059769 
	C547.793518,171.836670 542.117737,171.881241 536.456726,172.046829 
	C533.358459,172.137451 531.936035,171.297607 531.945679,167.868301 
	C532.037598,135.206360 532.008667,102.544029 531.988098,69.881836 
	C531.986023,66.615822 533.422302,64.969246 536.758545,64.990585 
	C542.590820,65.027901 548.434937,64.799736 554.248657,65.130531 
	C555.868408,65.222694 557.996277,66.505768 558.881409,67.888680 
	C575.390137,93.682335 591.742798,119.575905 608.147095,145.436508 
	C608.836975,146.524048 609.710083,147.495377 610.757874,148.859375 
	C611.766113,147.953781 613.177429,147.134659 613.964172,145.913193 
	C629.147949,122.340271 644.772705,99.025986 659.096436,74.938744 
	C663.904602,66.853088 669.012512,64.371429 677.874329,64.808151 
	C692.358582,65.521950 691.006042,63.547962 691.000488,78.002922 
	C690.997498,85.835281 691.000000,93.667641 691.000000,102.000000 
z"/>
<path fill="#01448F" opacity="1.000000" stroke="none" 
	d="
M259.000000,737.000000 
	C245.836823,737.000000 233.168961,736.802551 220.512909,737.102966 
	C215.835846,737.213928 215.006454,735.561523 215.977036,731.484924 
	C220.398956,712.911926 224.683044,694.306274 229.071640,675.725281 
	C235.356461,649.115906 241.698502,622.520020 247.995850,595.913574 
	C250.045319,587.254578 252.009674,578.575378 254.086716,569.923096 
	C254.257492,569.211731 254.997375,568.636902 256.009125,567.278687 
	C258.163422,570.736267 260.224823,573.712158 261.951660,576.870850 
	C272.135956,595.500305 282.230133,614.179077 292.382294,632.826111 
	C295.635956,638.802368 298.713257,644.898254 302.355072,650.632080 
	C305.277069,655.232422 305.302277,659.651001 304.049835,664.733887 
	C298.554108,687.037415 293.231140,709.385071 288.094116,731.773804 
	C287.185913,735.732056 285.630249,737.267273 281.490173,737.088562 
	C274.172455,736.772705 266.831329,737.000000 259.000000,737.000000 
z"/>
<path fill="#01448F" opacity="1.000000" stroke="none" 
	d="
M497.028076,660.687805 
	C496.227966,653.109558 501.118683,648.154785 504.070892,642.535522 
	C510.776276,629.772278 517.817261,617.184387 524.789673,604.562622 
	C531.386475,592.620667 538.064758,580.723633 544.739197,568.824707 
	C544.948730,568.451233 545.511963,568.276062 546.750549,567.444031 
	C547.886108,571.174683 549.102844,574.527954 549.923462,577.975525 
	C554.229614,596.067688 558.453918,614.179443 562.671814,632.292480 
	C568.797974,658.600464 574.889099,684.916504 581.006897,711.226440 
	C582.653381,718.307190 584.245911,725.402832 586.054626,732.442383 
	C586.894897,735.712585 585.701172,736.995605 582.575439,736.996277 
	C561.260254,737.000854 539.943665,737.095276 518.632568,736.799438 
	C517.071655,736.777771 514.607422,734.152222 514.156250,732.340576 
	C509.740784,714.612000 505.683258,696.794617 501.480530,679.012695 
	C500.067566,673.034302 498.530457,667.085205 497.028076,660.687805 
z"/>
<path fill="#01448F" opacity="1.000000" stroke="none" 
	d="
M403.000000,100.000000 
	C412.991302,100.000015 422.485413,100.129784 431.972351,99.926613 
	C435.109467,99.859428 436.754211,100.644691 437.496002,103.882782 
	C441.576355,121.694138 445.821777,139.467651 450.003174,157.255890 
	C450.707123,160.250504 451.331696,163.264282 452.069000,166.250427 
	C453.468750,171.919495 453.441742,171.994507 447.439880,171.996674 
	C424.627411,172.004898 401.814972,172.000015 379.002502,172.000000 
	C370.510284,171.999985 362.016968,171.920380 353.526276,172.033997 
	C349.401093,172.089203 348.589691,170.778275 349.594299,166.625702 
	C354.614227,145.874847 359.241425,125.029121 364.047089,104.226097 
	C364.697815,101.409218 366.092468,99.830498 369.532257,99.908157 
	C380.516602,100.156174 391.510071,100.000061 403.000000,100.000000 
z"/>
<path fill="#01448F" opacity="1.000000" stroke="none" 
	d="
M435.166656,578.000244 
	C431.102600,585.719727 427.130402,593.489319 422.952972,601.146973 
	C416.676636,612.652222 410.291412,624.098755 403.839569,635.506409 
	C403.238281,636.569519 401.896576,637.659607 400.767670,637.820984 
	C400.022125,637.927612 398.754852,636.553528 398.209625,635.571228 
	C387.765961,616.757446 377.389038,597.906433 367.021820,579.050293 
	C366.339539,577.809326 365.845917,576.464661 364.742828,574.004944 
	C388.300537,574.004944 411.131683,574.004944 434.474548,574.418091 
	C435.046387,575.887634 435.106537,576.943909 435.166656,578.000244 
z"/>
<path fill="#FFD300" opacity="1.000000" stroke="none" 
	d="
M435.469299,577.881653 
	C435.106537,576.943909 435.046387,575.887634 434.935669,574.436646 
	C435.180695,575.282410 435.476318,576.522705 435.469299,577.881653 
z"/>
<path fill="#FFD300" opacity="1.000000" stroke="none" 
	d="
M437.323975,258.873352 
	C437.266388,258.690399 437.366089,258.391693 437.727203,258.129822 
	C437.849335,258.389252 437.680237,258.586212 437.323975,258.873352 
z"/>
<path fill="#FFD300" opacity="1.000000" stroke="none" 
	d="
M183.452118,410.347412 
	C183.296936,410.194336 183.357330,409.664215 183.707336,409.150391 
	C183.887192,409.434570 183.777451,409.702515 183.452118,410.347412 
z"/>
</svg>