<svg version="1.1" id="Layer_1" xmlns="http://www.w3.org/2000/svg" xmlns:xlink="http://www.w3.org/1999/xlink" x="0px" y="0px"
	 width="100%" viewBox="0 0 200 200" enable-background="new 0 0 200 200" xml:space="preserve">
<path fill="#FEFEFE" opacity="1.000000" stroke="none" 
	d="
M121.000000,201.000000 
	C81.857513,201.000000 43.214943,200.968704 4.572701,201.065674 
	C1.800066,201.072632 0.894840,200.769409 0.901364,197.576721 
	C1.033099,133.117310 1.025362,68.657532 0.916542,4.198052 
	C0.911684,1.320241 1.631906,0.926627 4.298121,0.930323 
	C68.757660,1.019680 133.217392,1.018269 197.676941,0.934091 
	C200.291473,0.930677 201.091675,1.241711 201.086548,4.173113 
	C200.973297,68.799149 200.980026,133.425446 201.072052,198.051544 
	C201.075790,200.672791 200.329590,201.063583 197.951904,201.055298 
	C172.468185,200.966415 146.984039,201.000000 121.000000,201.000000 
z"/>
<path fill="#389832" opacity="1.000000" stroke="none" 
	d="
M89.474663,59.300804 
	C89.179291,50.907635 89.144547,42.915798 88.992851,34.926178 
	C88.932327,31.738153 90.418625,30.348562 93.497070,30.354349 
	C100.828415,30.368135 108.159828,30.371653 115.491150,30.352478 
	C118.582687,30.344393 120.049377,31.773520 120.021744,34.927250 
	C119.957504,42.258087 120.015678,49.589916 119.987457,56.921200 
	C119.978989,59.120365 119.306473,61.022263 116.695274,61.037205 
	C108.366470,61.084866 100.036652,61.051701 91.708557,60.945370 
	C91.029984,60.936707 90.361534,60.135803 89.474663,59.300804 
z"/>
<path fill="#3A9934" opacity="1.000000" stroke="none" 
	d="
M128.864227,30.563160 
	C136.779724,30.410671 144.277634,30.443132 151.772873,30.317186 
	C155.458160,30.255259 157.278549,31.476068 157.131058,35.542694 
	C156.883591,42.365410 156.935257,49.206982 157.115219,56.033916 
	C157.209290,59.602272 156.074844,61.242260 152.282288,61.148506 
	C145.121735,60.971485 137.952820,61.033062 130.789169,61.129230 
	C127.977730,61.166981 126.267052,60.277077 126.262604,57.231163 
	C126.251419,49.566429 126.231621,41.901672 126.243500,34.236973 
	C126.245979,32.635757 126.802750,31.304039 128.864227,30.563160 
z"/>
<path fill="#399934" opacity="1.000000" stroke="none" 
	d="
M51.943222,124.940094 
	C51.943417,119.625214 52.079971,114.794067 51.898800,109.974861 
	C51.764374,106.399033 53.027611,104.776505 56.771172,104.857826 
	C63.923630,105.013214 71.083099,104.982056 78.237114,104.868103 
	C81.472427,104.816566 82.772171,106.304642 82.763947,109.364792 
	C82.744255,116.686966 82.720009,124.009499 82.773666,131.331329 
	C82.797478,134.579758 81.119873,135.699829 78.099037,135.671127 
	C71.609467,135.609451 65.118851,135.668793 58.628731,135.651276 
	C52.148880,135.633789 51.953487,135.422699 51.943497,128.923691 
	C51.941704,127.758781 51.943230,126.593864 51.943222,124.940094 
z"/>
<path fill="#389832" opacity="1.000000" stroke="none" 
	d="
M119.753128,133.268402 
	C118.597092,135.717575 116.685646,135.632263 114.859184,135.638641 
	C108.029251,135.662476 101.197395,135.555283 94.369865,135.685638 
	C90.645981,135.756714 88.845818,134.479828 88.960663,130.474350 
	C89.156326,123.649948 89.098488,116.814369 88.978897,109.986443 
	C88.916954,106.450073 90.195518,104.778954 93.934044,104.861824 
	C100.927208,105.016830 107.928749,105.017296 114.921844,104.860756 
	C118.564735,104.779221 120.088562,106.255371 120.029968,109.863205 
	C119.905563,117.523048 119.926964,125.185257 119.753128,133.268402 
z"/>
<path fill="#3A9934" opacity="1.000000" stroke="none" 
	d="
M157.062927,117.033981 
	C157.062683,122.020699 156.929688,126.518394 157.107056,131.003815 
	C157.233582,134.203293 155.903091,135.650055 152.785156,135.647461 
	C145.297806,135.641205 137.810425,135.633865 130.323105,135.648117 
	C127.347443,135.653778 126.227997,134.066315 126.244484,131.251373 
	C126.287369,123.930634 126.276840,116.609406 126.251068,109.288498 
	C126.240082,106.168663 127.658150,104.812920 130.840073,104.867126 
	C137.659943,104.983292 144.489868,105.084930 151.302582,104.835411 
	C155.585770,104.678535 157.565979,106.111076 157.097900,110.553490 
	C156.889816,112.528206 157.062851,114.543068 157.062927,117.033981 
z"/>
<path fill="#399934" opacity="1.000000" stroke="none" 
	d="
M51.943222,151.111099 
	C51.945271,141.991302 51.945271,141.991196 60.840584,141.991028 
	C66.335289,141.990936 71.833443,142.110077 77.323502,141.950317 
	C81.097656,141.840500 82.866707,143.270401 82.796432,147.175049 
	C82.673622,153.999603 82.666130,160.829849 82.801193,167.653915 
	C82.872879,171.275665 81.391136,172.758759 77.772171,172.691574 
	C70.781319,172.561783 63.785561,172.589371 56.793449,172.678391 
	C53.201122,172.724136 51.723492,171.272751 51.884449,167.575546 
	C52.115967,162.257431 51.943352,156.921707 51.943222,151.111099 
z"/>
<path fill="#389832" opacity="1.000000" stroke="none" 
	d="
M120.003967,165.735229 
	C120.722374,171.346451 118.298409,172.958282 113.392601,172.722641 
	C107.077026,172.419266 100.733917,172.553345 94.406494,172.684067 
	C90.712349,172.760391 88.845741,171.546539 88.961403,167.510330 
	C89.156952,160.686066 89.091446,153.850891 88.983437,147.022720 
	C88.925743,143.375366 90.581146,141.922867 94.126442,141.969360 
	C100.955147,142.058914 107.787514,142.085388 114.615082,141.959686 
	C118.402428,141.889969 120.124298,143.402313 120.038406,147.276978 
	C119.905525,153.270996 120.003738,159.270126 120.003967,165.735229 
z"/>
<path fill="#379831" opacity="1.000000" stroke="none" 
	d="
M82.747955,71.485001 
	C82.754639,78.927094 82.589989,85.917595 82.816895,92.895363 
	C82.951988,97.049667 81.345322,98.454124 77.268372,98.311226 
	C70.291748,98.066681 63.299118,98.160927 56.315887,98.275803 
	C53.116962,98.328430 51.849918,97.064751 51.908512,93.844658 
	C52.041634,86.529305 52.019012,79.208923 51.917641,71.892563 
	C51.875431,68.846077 53.292564,67.731232 56.150002,67.747604 
	C63.633823,67.790474 71.118164,67.785690 78.602051,67.748634 
	C80.920448,67.737160 82.465210,68.540672 82.747955,71.485001 
z"/>
<path fill="#369730" opacity="1.000000" stroke="none" 
	d="
M97.118027,98.239761 
	C89.022110,98.218002 89.020981,98.218002 89.019318,90.505745 
	C89.018021,84.519646 89.104004,78.531921 88.987541,72.548096 
	C88.922569,69.210236 90.187714,67.668472 93.658920,67.726746 
	C100.806953,67.846748 107.960785,67.871216 115.107513,67.716812 
	C118.844398,67.636093 120.098801,69.309494 120.034592,72.835640 
	C119.910492,79.650887 119.905998,86.471733 120.035561,93.286766 
	C120.103523,96.861778 118.775772,98.416367 115.060173,98.290756 
	C109.247009,98.094238 103.422295,98.239342 97.118027,98.239761 
z"/>
<path fill="#C80D11" opacity="1.000000" stroke="none" 
	d="
M83.140564,40.247993 
	C85.805908,49.798828 81.446724,58.724228 72.977783,61.629021 
	C64.502922,64.535851 55.253059,60.425522 51.845242,52.238430 
	C48.381847,43.917812 52.172489,34.335831 60.499477,30.362249 
	C68.322174,26.629313 77.655914,29.945902 82.180786,38.073921 
	C82.501328,38.649708 82.765114,39.257103 83.140564,40.247993 
z"/>
</svg>