<svg version="1.1" id="Layer_1" xmlns="http://www.w3.org/2000/svg" xmlns:xlink="http://www.w3.org/1999/xlink" x="0px" y="0px"
	 width="100%" viewBox="0 0 600 600" enable-background="new 0 0 600 600" xml:space="preserve">
<path fill="#BE32F5" opacity="1.000000" stroke="none" 
	d="
M418.000000,601.000000 
	C278.695557,601.000000 139.891144,601.000000 1.043357,601.000000 
	C1.043357,401.070557 1.043357,201.141098 1.043357,1.105817 
	C200.887772,1.105817 400.775604,1.105817 600.831726,1.105817 
	C600.831726,200.999878 600.831726,400.999939 600.831726,601.000000 
	C540.141052,601.000000 479.320526,601.000000 418.000000,601.000000 
M269.527435,456.020142 
	C267.860352,454.687469 266.080139,453.473053 264.544281,452.003265 
	C253.214798,441.160889 248.121750,427.560883 248.063568,412.187134 
	C247.887665,365.702484 248.000000,319.216766 248.000000,272.731445 
	C248.000000,270.958618 248.000000,269.185822 248.000000,267.545105 
	C228.758667,267.545105 210.013138,267.545105 191.000000,267.545105 
	C191.000000,269.521790 191.000000,271.503418 191.000000,273.485046 
	C191.000000,319.803741 190.898331,366.122864 191.090332,412.440765 
	C191.126450,421.149384 191.886398,429.915955 193.096359,438.545868 
	C195.492462,455.635590 202.149796,471.113983 213.647354,484.014496 
	C234.183563,507.056519 260.940094,517.230103 291.065979,518.863159 
	C312.082031,520.002380 332.775818,517.752625 352.405670,509.060974 
	C373.390045,499.769623 390.065735,485.788055 400.316254,465.078430 
	C407.933014,449.689819 410.743744,432.895691 410.873169,415.930176 
	C411.236603,368.281342 411.000031,320.627960 410.999573,272.976349 
	C410.999573,271.976685 411.328033,270.793823 410.906128,270.023376 
	C410.369385,269.043121 409.227783,267.713989 408.338196,267.707397 
	C390.266479,267.573029 372.193512,267.606628 354.000000,267.606628 
	C354.000000,313.379913 354.028015,358.696381 353.957245,404.012726 
	C353.950073,408.616699 353.395203,413.223633 353.014099,417.822540 
	C351.793152,432.555511 345.808258,444.825745 334.252289,454.272614 
	C325.309052,461.583588 315.057556,465.357056 303.592651,465.996338 
	C291.333313,466.679901 280.248138,463.175659 269.527435,456.020142 
M259.325134,171.914246 
	C272.668945,163.915894 285.990173,155.878967 299.410553,148.011169 
	C300.251892,147.517914 302.061768,148.014542 303.095428,148.613037 
	C314.434540,155.178604 325.713287,161.848526 336.999756,168.504837 
	C354.916962,179.071655 372.820892,189.660950 390.744415,200.217041 
	C397.301025,204.078552 403.897400,207.872452 410.998260,212.001068 
	C410.998260,191.116501 411.071747,171.132706 410.868195,151.151733 
	C410.850616,149.427521 409.418304,147.059448 407.930054,146.119537 
	C400.454773,141.398407 392.724579,137.082764 385.116486,132.569763 
	C362.014709,118.866158 338.848969,105.267937 315.864136,91.370567 
	C301.411133,82.631805 301.451111,82.278976 290.029755,89.029961 
	C258.164581,107.864998 226.412537,126.891861 194.495560,145.638168 
	C191.784134,147.230713 190.912140,148.689758 190.933365,151.680801 
	C191.065735,170.335938 191.000137,188.992477 191.000122,207.648560 
	C191.000122,208.867752 191.000122,210.086945 191.000122,211.984589 
	C214.075577,198.367950 236.339569,185.230148 259.325134,171.914246 
z"/>
<path fill="#FFFFFF" opacity="1.000000" stroke="none" 
	d="
M269.792847,456.269836 
	C280.248138,463.175659 291.333313,466.679901 303.592651,465.996338 
	C315.057556,465.357056 325.309052,461.583588 334.252289,454.272614 
	C345.808258,444.825745 351.793152,432.555511 353.014099,417.822540 
	C353.395203,413.223633 353.950073,408.616699 353.957245,404.012726 
	C354.028015,358.696381 354.000000,313.379913 354.000000,267.606628 
	C372.193512,267.606628 390.266479,267.573029 408.338196,267.707397 
	C409.227783,267.713989 410.369385,269.043121 410.906128,270.023376 
	C411.328033,270.793823 410.999573,271.976685 410.999573,272.976349 
	C411.000031,320.627960 411.236603,368.281342 410.873169,415.930176 
	C410.743744,432.895691 407.933014,449.689819 400.316254,465.078430 
	C390.065735,485.788055 373.390045,499.769623 352.405670,509.060974 
	C332.775818,517.752625 312.082031,520.002380 291.065979,518.863159 
	C260.940094,517.230103 234.183563,507.056519 213.647354,484.014496 
	C202.149796,471.113983 195.492462,455.635590 193.096359,438.545868 
	C191.886398,429.915955 191.126450,421.149384 191.090332,412.440765 
	C190.898331,366.122864 191.000000,319.803741 191.000000,273.485046 
	C191.000000,271.503418 191.000000,269.521790 191.000000,267.545105 
	C210.013138,267.545105 228.758667,267.545105 248.000000,267.545105 
	C248.000000,269.185822 248.000000,270.958618 248.000000,272.731445 
	C248.000000,319.216766 247.887665,365.702484 248.063568,412.187134 
	C248.121750,427.560883 253.214798,441.160889 264.544281,452.003265 
	C266.080139,453.473053 267.860352,454.687469 269.792847,456.269836 
z"/>
<path fill="#FFFFFF" opacity="1.000000" stroke="none" 
	d="
M258.964355,172.003296 
	C236.339569,185.230148 214.075577,198.367950 191.000122,211.984589 
	C191.000122,210.086945 191.000122,208.867752 191.000122,207.648560 
	C191.000137,188.992477 191.065735,170.335938 190.933365,151.680801 
	C190.912140,148.689758 191.784134,147.230713 194.495560,145.638168 
	C226.412537,126.891861 258.164581,107.864998 290.029755,89.029961 
	C301.451111,82.278976 301.411133,82.631805 315.864136,91.370567 
	C338.848969,105.267937 362.014709,118.866158 385.116486,132.569763 
	C392.724579,137.082764 400.454773,141.398407 407.930054,146.119537 
	C409.418304,147.059448 410.850616,149.427521 410.868195,151.151733 
	C411.071747,171.132706 410.998260,191.116501 410.998260,212.001068 
	C403.897400,207.872452 397.301025,204.078552 390.744415,200.217041 
	C372.820892,189.660950 354.916962,179.071655 336.999756,168.504837 
	C325.713287,161.848526 314.434540,155.178604 303.095428,148.613037 
	C302.061768,148.014542 300.251892,147.517914 299.410553,148.011169 
	C285.990173,155.878967 272.668945,163.915894 258.964355,172.003296 
z"/>
</svg>