<svg version="1.1" id="Layer_1" xmlns="http://www.w3.org/2000/svg" xmlns:xlink="http://www.w3.org/1999/xlink" x="0px" y="0px"
	 width="100%" viewBox="0 0 900 900" enable-background="new 0 0 900 900" xml:space="preserve">
<path fill="#2222FF" opacity="1.000000" stroke="none" 
	d="
M578.000000,901.000000 
	C386.833344,901.000000 196.166672,900.987183 5.500052,901.093689 
	C1.750732,901.095764 0.905528,900.249146 0.906808,896.499939 
	C1.008266,599.500000 1.008266,302.500000 0.906808,5.500032 
	C0.905527,1.750874 1.750873,0.905528 5.500032,0.906809 
	C302.500000,1.008261 599.500000,1.008261 896.499939,0.906809 
	C900.249146,0.905528 901.094482,1.750873 901.093201,5.500032 
	C900.991760,302.500000 900.991699,599.500000 901.093201,896.499939 
	C901.094482,900.249146 900.249634,901.098877 896.499878,901.094666 
	C790.500000,900.977051 684.500000,901.000000 578.000000,901.000000 
z"/>
<path fill="#FEFEFF" opacity="1.000000" stroke="none" 
	d="
M566.583496,655.674805 
	C547.490173,660.774597 528.777466,665.942993 510.082520,671.174561 
	C491.862366,676.273254 473.646667,681.389160 455.464386,686.620483 
	C452.620941,687.438721 450.047089,687.354980 447.240936,686.544800 
	C432.417450,682.264832 417.555389,678.118530 402.309265,673.938904 
	C382.613342,669.363586 363.751129,663.190430 344.577789,658.145203 
	C342.642517,657.635986 340.789093,656.938965 338.417480,657.231201 
	C338.078156,657.026001 337.943634,656.833679 337.842285,656.892822 
	C336.813416,655.895264 335.550598,655.473450 334.253876,655.129150 
	C308.421906,648.271057 282.755829,640.815308 257.024139,633.597900 
	C249.186142,631.399536 241.964447,627.488586 234.378571,623.921509 
	C234.273499,623.536804 234.256317,623.648926 234.311523,623.635986 
	C232.635117,622.974121 231.048035,622.028625 229.347794,620.860596 
	C229.292908,620.518372 229.261078,620.693115 229.349762,620.689148 
	C228.994308,620.808228 228.628784,620.689392 228.187042,620.049500 
	C228.032181,619.770325 228.071396,619.917175 228.143280,619.892456 
	C226.920822,619.336121 225.736954,618.554016 224.354401,617.823486 
	C224.333389,617.472046 224.328476,617.577454 224.375671,617.553833 
	C222.772888,617.324097 221.892929,615.764221 220.290802,614.939941 
	C220.164398,614.628235 220.168793,614.783386 220.244781,614.767578 
	C219.273163,614.324158 218.306396,613.749634 217.391724,612.787537 
	C217.416718,612.449219 217.368423,612.590820 217.443192,612.588257 
	C217.044083,612.812012 216.644302,612.732178 216.283081,611.944824 
	C216.235947,611.591431 216.220596,611.762756 216.306152,611.754211 
	C215.948517,611.778748 215.581375,611.633179 215.192719,610.983948 
	C215.083542,610.686218 215.124451,610.856812 215.207092,610.827393 
	C214.284973,610.304504 213.309692,609.758728 212.353912,608.815491 
	C212.338852,608.479370 212.317673,608.656982 212.406189,608.644226 
	C211.453262,608.686279 211.199356,607.570190 210.311264,606.924316 
	C210.202911,606.612732 210.184967,606.809875 210.283844,606.805542 
	C209.936859,606.790894 209.573288,606.612732 209.217957,605.954834 
	C209.143738,605.643188 209.130569,605.862793 209.240540,605.859924 
	C208.927139,605.798889 208.573929,605.613098 208.196579,604.987427 
	C208.091599,604.694519 208.098297,604.908325 208.204803,604.898315 
	C207.905487,604.804077 207.573196,604.597168 207.189819,604.004883 
	C207.075485,603.725098 207.092575,603.886230 207.172058,603.870483 
	C204.659088,602.017944 202.632431,599.594543 200.354538,596.995117 
	C200.239944,596.677368 200.200821,596.834717 200.281616,596.841492 
	C199.922104,596.800049 199.566864,596.596558 199.222763,595.944580 
	C199.160080,595.630920 199.163834,595.840820 199.267975,595.827637 
	C198.469833,595.570251 198.172226,594.603516 197.410797,593.854858 
	C197.402008,593.529175 197.368912,593.650879 197.431335,593.642090 
	C196.922104,593.771118 196.473801,593.593994 196.359833,592.771484 
	C196.572266,592.437195 196.580048,592.513794 196.585938,592.467346 
	C194.501251,592.382812 195.077072,589.712646 193.366730,588.881836 
	C193.294006,588.536194 193.283386,588.737671 193.383301,588.723755 
	C191.617569,587.910461 191.705551,585.683899 190.220398,584.184814 
	C190.047394,583.889465 190.047470,583.963623 190.084412,583.960693 
	C181.050110,572.005371 175.019943,558.580078 170.962540,544.217163 
	C167.467316,531.844177 165.972549,519.208618 165.984619,506.356995 
	C166.025146,463.192200 166.231369,420.025635 165.909180,376.863220 
	C165.729385,352.777466 170.263428,329.989655 181.994125,308.404602 
	C182.359970,308.139984 182.201157,308.136963 182.211700,308.215698 
	C183.837479,304.021210 186.869125,300.531525 189.145172,296.397217 
	C189.502823,296.368439 189.365051,296.330841 189.370514,296.402039 
	C189.213943,296.003784 189.314728,295.611694 190.054993,295.241333 
	C190.391281,295.173828 190.231796,295.178741 190.248749,295.256714 
	C191.334396,292.756958 193.559052,290.934998 195.110306,288.414703 
	C195.314926,288.261139 195.176651,288.141510 195.239822,288.207886 
	C196.116745,286.139313 198.203354,285.081635 199.902588,283.278992 
	C200.179413,283.097351 200.065308,283.061798 200.051697,283.119995 
	C200.203979,282.854553 200.417984,282.567413 200.910568,282.168762 
	C201.133728,282.015228 201.036652,282.048340 201.055695,282.095947 
	C201.421570,281.580994 201.482437,280.882263 202.232056,280.483459 
	C202.542053,280.603027 202.619675,280.555908 202.637527,280.514160 
	C202.169662,280.045776 202.196335,279.656158 203.111877,279.383179 
	C203.325638,279.357544 203.167282,279.252625 203.239655,279.315308 
	C203.319763,278.408478 204.466187,278.183044 205.140213,277.435608 
	C205.468536,277.437744 205.169830,277.184082 205.303452,277.327393 
	C205.357162,276.388763 206.486130,276.151184 207.209915,275.474213 
	C207.537659,275.546753 207.315552,275.324249 207.402924,275.454926 
	C207.087677,274.520416 207.997940,274.608337 208.856445,274.233887 
	C209.164169,274.087280 209.050217,274.065125 209.043213,274.122742 
	C209.212585,273.843719 209.439972,273.546844 209.992462,273.200256 
	C210.258850,273.104736 210.090912,273.082611 210.085907,273.167175 
	C210.213455,272.870209 210.433167,272.548157 211.029099,272.213196 
	C211.318207,272.140839 211.123688,272.135986 211.130417,272.233032 
	C211.210037,271.904755 211.413742,271.555695 212.060150,271.247009 
	C212.372101,271.211029 212.184814,271.187683 212.186249,271.282043 
	C212.210663,270.919586 212.412491,270.556915 213.092590,270.315491 
	C213.417572,270.356018 213.312729,270.327148 213.334885,270.376801 
	C215.265900,267.792755 218.162048,266.390625 221.028992,264.445679 
	C221.358704,264.350586 221.263977,264.323944 221.277054,264.371368 
	C221.513046,263.064331 222.965652,263.216858 223.981659,262.336212 
	C224.281357,262.205353 224.143143,262.176239 224.139832,262.246796 
	C224.597778,261.161621 225.906235,261.174103 226.992737,260.342896 
	C227.294312,260.221130 227.158737,260.192108 227.156555,260.261414 
	C238.290680,252.868179 250.463058,247.769592 263.733826,244.244827 
	C264.799438,244.050964 265.542053,244.052429 266.630432,243.915344 
	C268.240509,242.899521 269.828766,242.869110 271.495789,242.351074 
	C272.996948,242.401108 274.165558,242.275345 275.667633,242.023102 
	C286.472168,239.967148 296.936829,239.521942 307.594452,240.639954 
	C333.677643,243.376114 358.028870,252.913193 383.125153,259.471771 
	C404.608490,265.086121 425.910889,271.420074 447.651520,277.638062 
	C448.565857,278.041077 449.128571,278.218536 449.987244,278.355774 
	C450.857391,278.010101 451.491943,278.593781 452.369110,278.251038 
	C453.280914,278.257385 453.883331,278.207458 454.747925,277.999878 
	C470.390289,273.077087 485.955627,268.962067 501.446655,264.584869 
	C518.875610,259.660095 536.349243,254.890121 553.733704,249.812622 
	C572.568176,244.311600 591.423645,238.990997 611.333984,240.025406 
	C629.768433,240.983109 647.421936,245.094986 663.968811,253.539352 
	C667.820251,255.504868 671.578247,257.633240 675.603882,259.996521 
	C675.798279,260.363739 675.800537,260.240967 675.740845,260.255402 
	C676.710144,260.644409 677.627808,261.236145 678.686279,262.067017 
	C678.790649,262.377167 678.798889,262.250519 678.736572,262.262390 
	C683.040283,264.523682 686.633789,267.855682 690.623779,271.084229 
	C690.704407,271.423492 690.726318,271.284546 690.656494,271.293213 
	C691.044312,271.224823 691.416748,271.368500 691.758423,272.054230 
	C691.812744,272.375671 691.808167,272.234192 691.739502,272.251434 
	C693.977722,273.351593 695.248169,275.773865 697.534363,277.175781 
	C697.664551,277.365448 697.832092,277.214447 697.748108,277.287018 
	C698.014709,277.197601 698.436340,277.296692 698.624146,278.162781 
	C698.639709,278.341003 698.792908,278.163147 698.712402,278.249878 
	C699.029663,278.210358 699.471619,278.326630 699.584717,279.191772 
	C699.363464,279.525055 699.441650,279.514160 699.431030,279.552185 
	C700.502991,279.051239 700.372437,280.035614 700.770630,280.849915 
	C700.921448,281.154510 700.949585,281.046661 700.894897,281.035828 
	C701.165588,281.212128 701.453674,281.445251 701.812012,281.982758 
	C701.919250,282.241241 701.926575,282.072266 701.842041,282.073730 
	C702.123169,282.204742 702.434021,282.415253 702.815674,282.964355 
	C702.941223,283.221985 702.961731,283.056335 702.878540,283.049316 
	C703.164368,283.216003 703.470337,283.466675 703.837524,284.068909 
	C703.925903,284.619873 704.022644,284.837036 704.434875,285.030579 
	C705.439270,285.449158 705.810913,286.342438 706.625854,287.117065 
	C706.677185,287.443024 706.708801,287.295410 706.633484,287.300232 
	C707.066833,287.236298 707.465515,287.423065 707.603455,288.144470 
	C707.436218,288.461914 707.466675,288.549835 707.507263,288.572510 
	C707.764526,288.548065 707.981201,288.501007 708.351624,288.748566 
	C708.979126,290.049042 709.514282,291.013184 710.314331,292.098175 
	C710.272400,292.427460 710.284424,292.643494 710.384521,292.684570 
	C712.168396,292.361389 711.714172,294.132660 712.542725,295.022522 
	C712.624512,295.340668 712.977905,295.039764 712.795227,295.182739 
	C715.370483,297.545929 716.571472,300.825317 718.388306,304.067291 
	C718.634338,304.308411 718.819763,304.209137 718.729126,304.264893 
	C720.066589,304.420929 719.251953,305.755798 719.759277,306.771423 
	C719.942139,307.077942 719.977966,307.011322 719.942383,307.024139 
	C727.180115,318.028381 731.112366,330.352570 733.935242,343.049316 
	C736.902344,356.394531 737.093933,369.976532 737.050110,383.599884 
	C736.908081,427.709656 737.015503,471.820099 736.974243,516.366211 
	C735.333862,523.844177 735.203552,531.099548 733.533997,538.175049 
	C729.967224,553.291077 723.780701,567.200500 715.622986,580.316406 
	C715.185669,581.019409 714.745972,581.718323 714.001465,582.639404 
	C713.643494,582.828674 713.785583,582.836853 713.776245,582.766357 
	C713.006653,584.565979 711.541809,585.946472 710.133545,587.749573 
	C709.872253,587.951233 709.946716,587.957642 709.946533,587.920288 
	C709.578552,588.412842 709.515076,589.072388 708.896545,589.707397 
	C708.589233,589.788391 708.723633,589.784546 708.704407,589.720154 
	C707.956726,591.587036 705.986938,592.644104 704.899658,594.603882 
	C704.565918,594.650085 704.659058,594.677185 704.649170,594.629700 
	C704.756836,595.039734 704.642761,595.418884 703.929810,595.722595 
	C703.600525,595.738281 703.746887,595.754700 703.737488,595.681641 
	C703.778931,596.062683 703.613220,596.424866 702.942993,596.750244 
	C702.624512,596.792419 702.802490,596.805237 702.795044,596.716309 
	C702.780701,597.075134 702.601501,597.437927 701.930176,597.733887 
	C701.609924,597.751892 701.719543,597.758423 701.704468,597.705627 
	C699.814270,600.820374 696.877869,602.990601 693.984253,605.604736 
	C693.659058,605.702759 693.772949,605.730347 693.769287,605.671875 
	C693.774170,606.066345 693.609619,606.437622 692.921631,606.697266 
	C692.597656,606.679749 692.708069,606.697510 692.696045,606.642944 
	C691.365356,608.748535 688.920471,609.670044 686.962402,611.563049 
	C686.632263,611.635986 686.742859,611.697998 686.719116,611.639221 
	C686.735291,612.096802 686.536926,612.505554 685.811646,612.649902 
	C685.488770,612.477722 685.929016,612.642334 685.716431,612.542175 
	C685.660339,614.077393 683.935852,613.699829 682.984680,614.594604 
	C682.662354,614.694397 682.773071,614.715698 682.765625,614.659851 
	C680.667847,616.794556 677.996704,618.135132 675.087097,619.714050 
	C674.752686,619.812012 674.894287,619.849487 674.903931,619.776917 
	C674.772827,620.141785 674.517761,620.500427 673.849121,620.669800 
	C673.533875,620.548401 673.681519,620.585205 673.627808,620.531311 
	C664.682251,626.947632 654.554260,630.875549 644.167542,633.927917 
	C618.511108,641.467651 592.715149,648.529358 566.583496,655.674805 
z"/>
<path fill="#3838D6" opacity="1.000000" stroke="none" 
	d="
M735.807373,518.964111 
	C736.061707,469.070496 736.086670,419.455170 736.095032,369.839874 
	C736.098755,347.757080 730.741272,327.056732 719.948120,307.398499 
	C724.484619,309.703308 725.516968,314.765533 727.252319,319.015198 
	C734.089172,335.757568 737.977417,353.186951 737.958862,371.398132 
	C737.911011,418.347809 737.942688,465.297577 737.943420,512.247314 
	C737.943420,514.907349 738.116882,517.584412 737.052002,520.550537 
	C735.326538,521.346558 735.613098,520.160583 735.807373,518.964111 
z"/>
<path fill="#2524CE" opacity="1.000000" stroke="none" 
	d="
M675.720642,260.018951 
	C660.151245,251.310699 643.645630,244.635925 625.651001,241.920135 
	C608.313599,239.303528 591.177734,240.084274 574.282043,244.771439 
	C534.777832,255.730621 495.298248,266.778351 455.409393,277.816223 
	C457.283478,274.618073 461.093658,274.944885 464.276672,274.028809 
	C484.495728,268.209778 504.712891,262.346802 525.003296,256.823120 
	C544.163086,251.607178 563.065613,245.366852 582.554688,241.373856 
	C584.169189,241.043045 585.847595,241.023651 587.951477,240.818420 
	C589.699646,240.235199 591.074036,240.655548 592.664062,240.238892 
	C594.385437,239.749634 595.837402,239.461548 597.656921,239.127380 
	C603.714294,239.973129 609.437317,239.324295 615.539001,239.280487 
	C617.372864,239.414505 618.811401,239.717545 620.623047,240.024811 
	C622.079163,240.865005 623.308716,240.408371 624.729004,240.246643 
	C639.959778,243.407928 654.887329,246.911011 668.372375,254.714737 
	C670.924561,256.191681 673.775146,257.204010 675.720642,260.018951 
z"/>
<path fill="#1E1FC9" opacity="1.000000" stroke="none" 
	d="
M182.014648,308.239075 
	C170.077286,331.025787 166.114609,355.541595 166.464554,381.338470 
	C167.042831,423.969208 166.570099,466.613586 166.642212,509.252045 
	C166.688004,536.330383 174.548798,561.002747 190.040009,583.613403 
	C186.869949,583.237366 185.978485,580.175049 184.668488,577.878906 
	C174.528275,560.105713 166.945374,541.453857 165.987671,520.655945 
	C165.927353,519.346191 165.479477,518.054260 165.162628,516.339478 
	C165.680725,514.828491 165.494354,513.641541 165.493851,512.487366 
	C165.472397,462.993378 165.561722,413.499359 165.289536,363.544189 
	C166.417709,353.788391 166.801514,344.315125 169.971039,335.372559 
	C173.255859,326.104736 175.282135,316.270660 182.014648,308.239075 
z"/>
<path fill="#2524CE" opacity="1.000000" stroke="none" 
	d="
M447.886719,277.529602 
	C414.430756,268.508698 380.881317,259.070221 347.274902,249.838959 
	C333.367706,246.018799 319.592316,241.558258 305.001953,240.728348 
	C295.488800,240.187241 286.064667,240.558853 276.333191,241.953064 
	C278.643585,238.466492 282.446259,240.681381 286.107788,239.859909 
	C292.440247,239.082321 298.329742,239.756729 304.597687,239.255585 
	C319.289459,240.201126 332.910553,244.501007 346.671204,248.071030 
	C358.698669,251.191376 370.616882,254.733765 382.577637,258.110107 
	C403.632080,264.053467 424.681091,270.016205 445.738068,275.950592 
	C446.560730,276.182404 447.330444,276.390015 447.886719,277.529602 
z"/>
<path fill="#2524CE" opacity="1.000000" stroke="none" 
	d="
M566.658630,655.695557 
	C590.628052,648.663635 615.053040,641.720337 639.497498,634.846313 
	C651.234985,631.545654 662.423706,626.988403 673.238770,620.604736 
	C671.107056,625.166321 666.095764,626.078735 661.926208,628.094360 
	C646.272339,635.661682 629.227295,638.988403 612.691772,643.855042 
	C599.497864,647.738220 586.230591,651.372009 573.010925,655.168884 
	C571.061279,655.728882 569.147827,656.163513 566.658630,655.695557 
z"/>
<path fill="#1E1FC9" opacity="1.000000" stroke="none" 
	d="
M234.374573,623.874512 
	C258.165863,635.434875 284.385834,640.096802 309.644012,647.742981 
	C317.762146,650.200623 325.979828,652.328247 334.137543,654.657410 
	C335.322601,654.995789 336.945374,654.625671 337.588989,656.655396 
	C321.088104,653.267456 304.800964,648.140869 288.433197,643.479126 
	C272.574249,638.962341 256.218170,635.629761 241.226471,628.260986 
	C238.844666,627.090332 236.462341,626.004395 234.374573,623.874512 
z"/>
<path fill="#0807D0" opacity="1.000000" stroke="none" 
	d="
M165.089569,363.541626 
	C166.100388,364.403778 165.867340,365.941742 165.867569,367.422546 
	C165.875504,415.711517 165.876114,464.000519 165.859772,512.289490 
	C165.859436,513.275330 165.645721,514.261108 165.322479,515.585938 
	C165.094131,465.283417 165.074890,414.641846 165.089569,363.541626 
z"/>
<path fill="#2524CE" opacity="1.000000" stroke="none" 
	d="
M735.940613,518.999878 
	C735.700562,519.455200 735.929199,520.085571 736.743286,520.793335 
	C736.348206,536.907166 731.383240,551.711426 724.581360,565.911377 
	C721.763916,571.793396 719.347534,578.070740 713.995239,582.756836 
	C726.014160,563.394653 734.210083,542.501892 735.940613,518.999878 
z"/>
<path fill="#2524CE" opacity="1.000000" stroke="none" 
	d="
M338.359497,657.257080 
	C340.044189,656.694031 341.919067,656.745789 343.912903,657.314514 
	C363.050629,662.773438 382.219788,668.122131 401.645874,673.727112 
	C394.535278,674.563965 387.991669,671.228027 381.156586,669.415161 
	C366.931000,665.641846 352.806763,661.486450 338.359497,657.257080 
z"/>
<path fill="#2524CE" opacity="1.000000" stroke="none" 
	d="
M263.643494,244.028870 
	C261.876709,246.076187 258.929169,246.186707 256.304443,246.973419 
	C246.177841,250.008713 236.953766,254.920837 227.508759,260.241638 
	C229.982529,256.063080 234.740341,254.640640 238.972534,252.573975 
	C246.710434,248.795410 254.526291,245.107346 263.643494,244.028870 
z"/>
<path fill="#2524CE" opacity="1.000000" stroke="none" 
	d="
M690.663879,271.071899 
	C686.809326,268.565277 682.914307,265.707062 678.846680,262.561584 
	C683.722229,263.582947 687.614807,266.526337 690.663879,271.071899 
z"/>
<path fill="#1E1FC9" opacity="1.000000" stroke="none" 
	d="
M189.147308,296.394348 
	C187.271317,300.220673 185.039810,304.072876 182.515274,308.109741 
	C182.964066,303.535217 185.336975,299.678467 189.147308,296.394348 
z"/>
<path fill="#2524CE" opacity="1.000000" stroke="none" 
	d="
M694.019348,605.743591 
	C696.139832,603.124023 698.620605,600.545288 701.395386,597.809692 
	C700.971741,601.908630 697.850159,604.003357 694.019348,605.743591 
z"/>
<path fill="#1E1FC9" opacity="1.000000" stroke="none" 
	d="
M200.203522,597.039673 
	C202.486313,598.863220 204.732681,601.049133 207.115295,603.544861 
	C203.607208,603.112305 201.608032,600.563599 200.203522,597.039673 
z"/>
<path fill="#080ACA" opacity="1.000000" stroke="none" 
	d="
M304.529053,239.041351 
	C299.188751,240.726105 293.249298,239.351471 286.984802,239.817429 
	C292.338196,238.018005 298.240234,239.410919 304.529053,239.041351 
z"/>
<path fill="#3838D6" opacity="1.000000" stroke="none" 
	d="
M718.550537,304.044495 
	C716.572266,301.601746 714.695740,298.795837 712.715881,295.657806 
	C716.310181,296.893372 717.708191,300.123260 718.550537,304.044495 
z"/>
<path fill="#080ACA" opacity="1.000000" stroke="none" 
	d="
M615.474365,239.079010 
	C610.220459,240.436066 604.460693,239.777145 598.367188,239.295166 
	C603.687744,239.069717 609.351074,239.058151 615.474365,239.079010 
z"/>
<path fill="#2524CE" opacity="1.000000" stroke="none" 
	d="
M675.130432,619.860596 
	C677.199097,618.149170 679.645447,616.486328 682.425049,614.713745 
	C681.470764,617.915588 678.750427,619.269043 675.130432,619.860596 
z"/>
<path fill="#2524CE" opacity="1.000000" stroke="none" 
	d="
M220.994751,264.295349 
	C218.896774,266.282257 216.434860,268.213898 213.664978,270.286011 
	C214.347778,266.678467 217.554474,265.535950 220.994751,264.295349 
z"/>
<path fill="#2524CE" opacity="1.000000" stroke="none" 
	d="
M697.515503,277.160095 
	C695.655029,275.964325 693.813171,274.412201 691.821045,272.564362 
	C694.812195,272.245880 696.197388,274.493500 697.515503,277.160095 
z"/>
<path fill="#1E1FC9" opacity="1.000000" stroke="none" 
	d="
M195.098587,288.398010 
	C193.916824,290.587463 192.380478,292.794159 190.554932,295.167755 
	C190.552551,292.247711 192.146729,290.006897 195.098587,288.398010 
z"/>
<path fill="#2524CE" opacity="1.000000" stroke="none" 
	d="
M686.989990,611.695496 
	C688.444702,610.044128 690.257080,608.452209 692.376770,606.724365 
	C691.892334,609.330078 690.076477,611.013916 686.989990,611.695496 
z"/>
<path fill="#1E1FC9" opacity="1.000000" stroke="none" 
	d="
M199.817505,283.104645 
	C198.784348,284.757996 197.389282,286.418671 195.717743,288.236633 
	C195.070129,285.334229 197.148743,284.136353 199.817505,283.104645 
z"/>
<path fill="#2524CE" opacity="1.000000" stroke="none" 
	d="
M704.920166,594.615845 
	C705.750916,593.092712 706.935913,591.535400 708.403076,589.816895 
	C708.955200,592.271973 707.230530,593.506897 704.920166,594.615845 
z"/>
<path fill="#2524CE" opacity="1.000000" stroke="none" 
	d="
M710.221619,587.918335 
	C710.974609,586.301575 712.076904,584.651917 713.473145,582.848999 
	C713.845825,585.130310 712.473145,586.670898 710.221619,587.918335 
z"/>
<path fill="#1E1FC9" opacity="1.000000" stroke="none" 
	d="
M229.350327,620.882080 
	C230.860168,621.373962 232.427429,622.229553 234.180725,623.354065 
	C232.151108,624.004272 230.528412,623.148621 229.350327,620.882080 
z"/>
<path fill="#1E1FC9" opacity="1.000000" stroke="none" 
	d="
M190.078003,584.247620 
	C191.120331,585.284485 192.193268,586.679504 193.374695,588.392212 
	C191.139496,588.344055 190.605606,586.490051 190.078003,584.247620 
z"/>
<path fill="#1E1FC9" opacity="1.000000" stroke="none" 
	d="
M220.249420,614.984619 
	C221.446243,615.434814 222.728088,616.241455 224.216385,617.289185 
	C222.381546,618.067566 221.206543,616.987122 220.249420,614.984619 
z"/>
<path fill="#1E1FC9" opacity="1.000000" stroke="none" 
	d="
M193.330078,588.902771 
	C194.294846,589.641235 195.295670,590.746277 196.444153,592.136108 
	C194.259842,592.656738 193.975342,590.796814 193.330078,588.902771 
z"/>
<path fill="#2524CE" opacity="1.000000" stroke="none" 
	d="
M271.426178,242.379150 
	C270.454529,242.932358 269.080688,243.337814 267.341522,243.760040 
	C267.742828,241.735611 269.374451,241.960083 271.426178,242.379150 
z"/>
<path fill="#3838D6" opacity="1.000000" stroke="none" 
	d="
M710.346497,292.114410 
	C709.522400,291.487427 708.772339,290.547424 707.948975,289.312561 
	C708.066284,288.866638 708.256836,288.715576 708.731995,288.792847 
	C709.847961,289.764374 710.377563,290.659973 710.346497,292.114410 
z"/>
<path fill="#3838D6" opacity="1.000000" stroke="none" 
	d="
M712.673462,294.992249 
	C711.992981,294.644135 711.361450,293.947571 710.607239,292.988342 
	C711.973755,292.497925 712.599243,293.277771 712.673462,294.992249 
z"/>
<path fill="#1E1FC9" opacity="1.000000" stroke="none" 
	d="
M212.381256,608.839966 
	C213.230209,609.058594 214.121567,609.637878 215.151321,610.507568 
	C213.932526,610.986511 212.932556,610.534058 212.381256,608.839966 
z"/>
<path fill="#2524CE" opacity="1.000000" stroke="none" 
	d="
M223.922897,262.183990 
	C223.483795,262.872314 222.686234,263.539307 221.589417,264.312531 
	C221.403061,263.016388 222.185150,262.288513 223.922897,262.183990 
z"/>
<path fill="#2524CE" opacity="1.000000" stroke="none" 
	d="
M678.713989,262.026489 
	C677.865479,261.856598 676.940308,261.335999 675.848145,260.542633 
	C676.986450,260.065826 678.048767,260.372864 678.713989,262.026489 
z"/>
<path fill="#1E1FC9" opacity="1.000000" stroke="none" 
	d="
M217.434799,612.813354 
	C218.289536,613.027954 219.162369,613.606750 220.177979,614.468628 
	C218.959015,614.966309 217.933945,614.567444 217.434799,612.813354 
z"/>
<path fill="#2524CE" opacity="1.000000" stroke="none" 
	d="
M683.023315,614.739197 
	C683.415710,614.016785 684.169006,613.339172 685.213074,612.551758 
	C685.598999,613.948303 684.773926,614.621704 683.023315,614.739197 
z"/>
<path fill="#2524CE" opacity="1.000000" stroke="none" 
	d="
M226.937897,260.198395 
	C226.453217,260.867767 225.612122,261.514435 224.453781,262.239197 
	C224.412537,260.988159 225.213593,260.258362 226.937897,260.198395 
z"/>
<path fill="#080ACA" opacity="1.000000" stroke="none" 
	d="
M592.579590,240.018799 
	C591.792603,241.041367 590.388123,240.716003 588.736206,240.791168 
	C589.491028,239.591400 590.922241,240.109528 592.579590,240.018799 
z"/>
<path fill="#1E1FC9" opacity="1.000000" stroke="none" 
	d="
M224.419495,617.816833 
	C225.526596,618.069458 226.719818,618.666809 228.064087,619.565979 
	C226.667877,619.974670 225.391678,619.492249 224.419495,617.816833 
z"/>
<path fill="#080ACA" opacity="1.000000" stroke="none" 
	d="
M624.576782,240.041870 
	C623.892090,241.007095 622.702515,240.869751 621.238831,240.224701 
	C622.057495,240.024384 623.118896,240.019760 624.576782,240.041870 
z"/>
<path fill="#1E1FC9" opacity="1.000000" stroke="none" 
	d="
M210.265579,606.952759 
	C210.866333,607.102844 211.529755,607.592957 212.343933,608.357300 
	C211.476654,608.664062 210.719269,608.274841 210.265579,606.952759 
z"/>
<path fill="#2524CE" opacity="1.000000" stroke="none" 
	d="
M207.197144,275.522736 
	C207.015625,276.113770 206.493607,276.680786 205.704315,277.359253 
	C205.402481,276.447845 205.790268,275.729034 207.197144,275.522736 
z"/>
<path fill="#2524CE" opacity="1.000000" stroke="none" 
	d="
M205.131866,277.446014 
	C204.979065,278.035645 204.489563,278.633545 203.735229,279.357178 
	C203.395081,278.469147 203.774460,277.752319 205.131866,277.446014 
z"/>
<path fill="#1E1FC9" opacity="1.000000" stroke="none" 
	d="
M197.395859,593.873169 
	C197.986603,594.095764 198.571213,594.662292 199.263947,595.521606 
	C198.375198,595.699158 197.638367,595.261108 197.395859,593.873169 
z"/>
<path fill="#2524CE" opacity="1.000000" stroke="none" 
	d="
M706.641113,287.100555 
	C706.073425,286.849640 705.469604,286.256256 704.741882,285.364380 
	C705.551453,285.311554 706.304382,285.769318 706.641113,287.100555 
z"/>
<path fill="#3838D6" opacity="1.000000" stroke="none" 
	d="
M719.954224,306.730743 
	C719.491760,306.396393 719.041443,305.714844 718.522095,304.726624 
	C719.579407,304.595184 719.875000,305.410645 719.954224,306.730743 
z"/>
<path fill="#2524CE" opacity="1.000000" stroke="none" 
	d="
M208.843201,274.123566 
	C208.785812,274.507904 208.407440,274.928558 207.759689,275.467407 
	C207.519592,274.882568 207.827057,274.380890 208.843201,274.123566 
z"/>
<path fill="#2524CE" opacity="1.000000" stroke="none" 
	d="
M700.886230,280.838074 
	C700.507263,280.798828 700.093140,280.443176 699.549683,279.838867 
	C700.117004,279.563263 700.616760,279.838593 700.886230,280.838074 
z"/>
<path fill="#2524CE" opacity="1.000000" stroke="none" 
	d="
M202.233337,280.615234 
	C202.225449,281.048523 201.908859,281.494049 201.333496,282.041565 
	C201.358032,281.638184 201.641327,281.132812 202.233337,280.615234 
z"/>
<path fill="#2524CE" opacity="1.000000" stroke="none" 
	d="
M708.886475,589.673096 
	C708.874512,589.265991 709.159729,588.743652 709.695679,588.052063 
	C709.692139,588.441223 709.437927,588.999512 708.886475,589.673096 
z"/>
<path fill="#2524CE" opacity="1.000000" stroke="none" 
	d="
M211.042084,272.237244 
	C211.100983,272.461853 210.883743,272.782837 210.373718,273.177795 
	C210.309265,272.945709 210.537598,272.639679 211.042084,272.237244 
z"/>
<path fill="#2524CE" opacity="1.000000" stroke="none" 
	d="
M701.888916,597.666077 
	C701.823303,597.445435 702.036743,597.138977 702.518921,596.729980 
	C702.581055,596.945007 702.374512,597.262634 701.888916,597.666077 
z"/>
<path fill="#2524CE" opacity="1.000000" stroke="none" 
	d="
M702.897095,596.691162 
	C702.816284,596.471252 703.008057,596.150085 703.463989,595.718750 
	C703.541931,595.935669 703.355835,596.262817 702.897095,596.691162 
z"/>
<path fill="#1E1FC9" opacity="1.000000" stroke="none" 
	d="
M215.225418,610.946167 
	C215.430634,610.862488 215.777725,611.038818 216.258270,611.480347 
	C216.050247,611.565796 215.708771,611.385925 215.225418,610.946167 
z"/>
<path fill="#1E1FC9" opacity="1.000000" stroke="none" 
	d="
M207.195969,603.998047 
	C207.418594,603.920959 207.761703,604.116821 208.208054,604.600525 
	C207.979691,604.682556 207.648071,604.476807 207.195969,603.998047 
z"/>
<path fill="#1E1FC9" opacity="1.000000" stroke="none" 
	d="
M208.218231,604.966980 
	C208.437408,604.890869 208.783218,605.087219 209.239777,605.570312 
	C209.015305,605.651184 208.680084,605.445312 208.218231,604.966980 
z"/>
<path fill="#1E1FC9" opacity="1.000000" stroke="none" 
	d="
M209.253082,605.925720 
	C209.479538,605.844238 209.815323,606.045227 210.266907,606.523804 
	C210.042618,606.603577 209.702530,606.405945 209.253082,605.925720 
z"/>
<path fill="#2524CE" opacity="1.000000" stroke="none" 
	d="
M692.876465,606.612976 
	C692.811096,606.386902 693.024536,606.093994 693.501770,605.707214 
	C693.562195,605.924255 693.358765,606.235229 692.876465,606.612976 
z"/>
<path fill="#2524CE" opacity="1.000000" stroke="none" 
	d="
M698.461121,278.242157 
	C698.146606,278.441345 697.879333,278.257965 697.590698,277.739624 
	C697.809692,277.662201 698.122681,277.813812 698.461121,278.242157 
z"/>
<path fill="#1E1FC9" opacity="1.000000" stroke="none" 
	d="
M216.351364,611.863403 
	C216.567947,611.758972 216.899963,611.926453 217.374969,612.339844 
	C217.167572,612.435608 216.817184,612.285461 216.351364,611.863403 
z"/>
<path fill="#2524CE" opacity="1.000000" stroke="none" 
	d="
M685.774536,612.471313 
	C685.722107,612.226196 685.955444,611.974731 686.442078,611.651855 
	C686.483704,611.875305 686.272034,612.170105 685.774536,612.471313 
z"/>
<path fill="#2524CE" opacity="1.000000" stroke="none" 
	d="
M691.706909,272.100311 
	C691.483765,272.192322 691.154785,272.009003 690.706299,271.563751 
	C690.924866,271.476227 691.262939,271.650574 691.706909,272.100311 
z"/>
<path fill="#1E1FC9" opacity="1.000000" stroke="none" 
	d="
M228.193115,620.019714 
	C228.396576,619.907410 228.760971,620.044556 229.281921,620.433472 
	C229.076996,620.546509 228.715515,620.407776 228.193115,620.019714 
z"/>
<path fill="#2524CE" opacity="1.000000" stroke="none" 
	d="
M673.827759,620.538452 
	C673.810059,620.310120 674.086243,620.071838 674.638062,619.768982 
	C674.649597,619.979126 674.385620,620.253845 673.827759,620.538452 
z"/>
<path fill="#2524CE" opacity="1.000000" stroke="none" 
	d="
M212.086563,271.294373 
	C212.147888,271.521362 211.923691,271.831696 211.418320,272.236084 
	C211.358444,272.012634 211.579742,271.695160 212.086563,271.294373 
z"/>
<path fill="#2524CE" opacity="1.000000" stroke="none" 
	d="
M213.133163,270.409363 
	C213.187943,270.640228 212.958298,270.924438 212.458160,271.292511 
	C212.408020,271.071838 212.628372,270.767273 213.133163,270.409363 
z"/>
<path fill="#1E1FC9" opacity="1.000000" stroke="none" 
	d="
M190.117203,295.294983 
	C190.219238,295.511658 190.047180,295.849457 189.625549,296.330261 
	C189.531677,296.120850 189.687393,295.768494 190.117203,295.294983 
z"/>
<path fill="#2524CE" opacity="1.000000" stroke="none" 
	d="
M708.813293,288.837616 
	C708.826416,289.017456 708.636230,289.013794 708.160889,289.013916 
	C707.875671,289.017731 707.599182,288.892487 707.573486,288.743835 
	C707.901917,288.614777 708.255981,288.634430 708.813293,288.837616 
z"/>
<path fill="#2524CE" opacity="1.000000" stroke="none" 
	d="
M707.427734,288.187561 
	C707.184937,288.242737 706.933716,288.023560 706.620300,287.554688 
	C706.845215,287.507782 707.132202,287.710510 707.427734,288.187561 
z"/>
<path fill="#2524CE" opacity="1.000000" stroke="none" 
	d="
M703.843018,284.065277 
	C703.630798,284.109528 703.299988,283.875336 702.882324,283.341736 
	C703.105103,283.290497 703.414856,283.538666 703.843018,284.065277 
z"/>
<path fill="#2524CE" opacity="1.000000" stroke="none" 
	d="
M702.821106,282.960876 
	C702.606384,283.030853 702.271484,282.839752 701.847046,282.361938 
	C702.071960,282.283447 702.386475,282.491638 702.821106,282.960876 
z"/>
<path fill="#1E1FC9" opacity="1.000000" stroke="none" 
	d="
M200.882385,282.135376 
	C200.962051,282.355774 200.790359,282.696320 200.328369,283.107513 
	C200.235733,282.870636 200.433395,282.563080 200.882385,282.135376 
z"/>
<path fill="#1E1FC9" opacity="1.000000" stroke="none" 
	d="
M199.262085,595.917480 
	C199.492188,595.845032 199.824280,596.059204 200.259399,596.560791 
	C200.029663,596.633484 199.696884,596.418762 199.262085,595.917480 
z"/>
<path fill="#2524CE" opacity="1.000000" stroke="none" 
	d="
M701.816650,281.976929 
	C701.598877,282.030670 701.278564,281.820099 700.899170,281.317291 
	C701.131531,281.254211 701.422791,281.483429 701.816650,281.976929 
z"/>
<path fill="#2524CE" opacity="1.000000" stroke="none" 
	d="
M203.229401,279.511230 
	C203.438293,279.778809 203.293839,280.040588 202.852997,280.360107 
	C202.761856,280.168243 202.868347,279.864105 203.229401,279.511230 
z"/>
<path fill="#2524CE" opacity="1.000000" stroke="none" 
	d="
M699.362366,279.257568 
	C699.055054,279.420288 698.815369,279.229248 698.561523,278.733185 
	C698.772888,278.673004 699.067078,278.831543 699.362366,279.257568 
z"/>
<path fill="#2524CE" opacity="1.000000" stroke="none" 
	d="
M452.079529,278.275085 
	C452.161469,278.895386 451.527344,279.023682 450.541565,278.550720 
	C450.682343,278.291351 451.081482,278.267120 452.079529,278.275085 
z"/>
<path fill="#2524CE" opacity="1.000000" stroke="none" 
	d="
M209.986664,273.195587 
	C210.046509,273.424286 209.834167,273.743835 209.329041,274.121887 
	C209.262314,273.882385 209.488403,273.584412 209.986664,273.195587 
z"/>
<path fill="#1E1FC9" opacity="1.000000" stroke="none" 
	d="
M196.573715,592.728455 
	C196.826843,592.668823 197.081421,592.900391 197.414886,593.382690 
	C197.187576,593.428772 196.881378,593.224243 196.573715,592.728455 
z"/>
<path fill="#2524CE" opacity="1.000000" stroke="none" 
	d="
M703.869507,595.646606 
	C703.779480,595.426331 703.958435,595.114380 704.388367,594.692383 
	C704.472412,594.906494 704.305420,595.230713 703.869507,595.646606 
z"/>
<path fill="#080ACA" opacity="1.000000" stroke="none" 
	d="
M393.207214,536.906738 
	C391.193909,534.331848 391.095947,531.196167 391.095428,528.055664 
	C391.088318,485.741425 391.090607,443.427216 391.092468,401.112976 
	C391.092621,397.085236 391.568756,393.154694 394.107666,389.573212 
	C395.677246,391.112549 395.729584,392.746765 395.306305,394.410950 
	C393.810120,400.293243 394.148407,406.291931 394.147217,412.267151 
	C394.140045,448.510529 394.181793,484.754028 394.095795,520.997192 
	C394.084778,525.645935 394.787872,530.253784 394.365540,535.359924 
	C393.998810,536.092041 393.809357,536.362427 393.207214,536.906738 
z"/>
<path fill="#1E1FC9" opacity="1.000000" stroke="none" 
	d="
M396.914673,384.962280 
	C404.179077,373.887238 418.701080,370.266327 430.216431,376.418030 
	C435.482117,379.231110 440.609222,382.303558 445.756714,385.839844 
	C441.466583,387.672485 438.513702,384.739624 435.242004,383.048523 
	C430.848419,380.777527 426.802185,377.766571 421.705109,377.120789 
	C414.972687,376.267761 408.902710,377.850311 403.543091,382.061249 
	C401.990540,383.281036 400.612396,384.769867 398.247192,385.385986 
	C397.622009,385.382507 397.373596,385.330933 396.914673,384.962280 
z"/>
<path fill="#1E1FC9" opacity="1.000000" stroke="none" 
	d="
M442.337585,545.112305 
	C437.244537,548.698547 432.186096,552.169800 426.418030,554.208130 
	C419.565857,556.629456 412.803986,556.018372 406.305420,552.118042 
	C407.833801,550.510925 409.446259,550.869812 411.066467,551.236755 
	C418.435516,552.905579 425.351898,552.181458 431.870331,547.950073 
	C434.564819,546.200928 437.272369,544.079712 441.191986,544.191040 
	C441.804596,544.431519 442.029175,544.576050 442.337585,545.112305 
z"/>
<path fill="#1E1FC9" opacity="1.000000" stroke="none" 
	d="
M477.009552,524.921265 
	C470.510223,529.230042 463.817383,533.226257 456.783569,537.311768 
	C456.213745,537.319763 455.984802,537.238464 455.681885,536.799500 
	C455.997589,534.420471 457.573029,533.398193 459.151489,532.508606 
	C464.469666,529.511536 469.412964,525.771912 475.800873,524.211121 
	C476.380951,524.383179 476.598480,524.495972 477.009552,524.921265 
z"/>
<path fill="#2524CE" opacity="1.000000" stroke="none" 
	d="
M554.962952,460.820923 
	C557.025330,468.597107 554.414856,475.070587 549.781311,481.268188 
	C549.246033,481.377472 548.992371,481.307220 548.574829,480.877991 
	C548.170837,479.147797 548.466736,477.812775 549.185364,476.709625 
	C552.124695,472.197418 551.564697,466.862122 553.010681,461.622925 
	C553.591980,460.875153 554.052795,460.660522 554.962952,460.820923 
z"/>
<path fill="#2524CE" opacity="1.000000" stroke="none" 
	d="
M513.132263,504.005127 
	C507.783478,508.457092 501.586884,511.391754 495.339386,514.894409 
	C494.848694,514.760071 494.706726,514.557800 494.518707,513.987061 
	C498.817566,507.889099 505.231079,505.540833 511.974487,503.209625 
	C512.554749,503.410767 512.769470,503.536621 513.132263,504.005127 
z"/>
<path fill="#1E1FC9" opacity="1.000000" stroke="none" 
	d="
M520.061279,428.777161 
	C526.168823,431.850037 531.942505,435.092102 537.676147,438.898376 
	C530.091858,439.611176 524.887695,435.157623 519.731201,430.049194 
	C519.661865,429.441223 519.694580,429.193817 520.061279,428.777161 
z"/>
<path fill="#1E1FC9" opacity="1.000000" stroke="none" 
	d="
M493.997925,413.942352 
	C498.176331,415.827179 502.069092,417.937683 506.171539,420.306427 
	C506.335785,420.803925 506.290314,421.043182 505.940674,421.485962 
	C500.645203,421.708771 497.098724,418.931793 493.743011,415.244019 
	C493.667114,414.651337 493.689697,414.409698 493.997925,413.942352 
z"/>
<path fill="#2524CE" opacity="1.000000" stroke="none" 
	d="
M544.141846,485.967896 
	C540.871033,489.108948 537.029907,491.237091 532.755859,493.294067 
	C532.190063,493.266418 531.971191,493.171082 531.700134,492.719910 
	C534.260132,488.343231 537.955444,485.968048 543.010498,485.194122 
	C543.575012,485.391876 543.784119,485.514069 544.141846,485.967896 
z"/>
<path fill="#1E1FC9" opacity="1.000000" stroke="none" 
	d="
M462.972778,396.036804 
	C466.743408,397.604828 470.256927,399.442963 473.740784,401.876099 
	C468.791962,403.927399 465.762115,401.044250 462.794281,397.408997 
	C462.694733,396.803650 462.705231,396.555298 462.972778,396.036804 
z"/>
<path fill="#1E1FC9" opacity="1.000000" stroke="none" 
	d="
M507.992584,421.972290 
	C511.740204,423.608917 515.206909,425.491791 518.666809,427.935364 
	C513.732544,429.869751 510.677399,427.039673 507.755096,423.323669 
	C507.673065,422.715057 507.692352,422.466766 507.992584,421.972290 
z"/>
<path fill="#1E1FC9" opacity="1.000000" stroke="none" 
	d="
M555.345642,460.628845 
	C555.044556,460.988037 554.771240,460.997131 554.293335,461.026611 
	C550.842651,458.268066 550.230957,454.274414 549.224792,450.119293 
	C549.398987,449.522034 549.514404,449.298035 549.962219,448.893860 
	C553.232056,452.016296 554.838745,455.904022 555.345642,460.628845 
z"/>
<path fill="#2524CE" opacity="1.000000" stroke="none" 
	d="
M532.299805,493.261078 
	C529.262939,495.279266 526.116821,497.196777 522.349243,498.922791 
	C523.195740,493.964752 526.759521,492.415649 531.666504,492.707458 
	C531.973572,492.957642 532.190674,493.160370 532.299805,493.261078 
z"/>
<path fill="#1E1FC9" opacity="1.000000" stroke="none" 
	d="
M447.063049,386.713135 
	C450.902710,388.446320 454.397339,390.295410 458.078156,392.426514 
	C458.154053,392.924835 458.043762,393.141083 457.615723,393.537781 
	C452.825653,393.744141 449.441437,391.670410 446.667114,387.898743 
	C446.626678,387.305634 446.672394,387.067352 447.063049,386.713135 
z"/>
<path fill="#1E1FC9" opacity="1.000000" stroke="none" 
	d="
M487.371521,519.114868 
	C484.246246,521.364441 481.073608,523.228638 477.552032,525.163330 
	C477.203094,525.233765 477.080414,525.087708 477.019165,525.014648 
	C477.782867,519.820801 481.887573,518.997070 486.307129,518.191650 
	C486.897034,518.436890 487.110596,518.583191 487.371521,519.114868 
z"/>
<path fill="#1E1FC9" opacity="1.000000" stroke="none" 
	d="
M456.326538,537.292114 
	C453.255188,539.284180 450.067719,541.167297 446.305389,542.805054 
	C447.633545,538.073242 450.183655,536.461609 455.674133,536.716553 
	C455.977661,536.966064 456.210449,537.183228 456.326538,537.292114 
z"/>
<path fill="#1E1FC9" opacity="1.000000" stroke="none" 
	d="
M403.001617,550.031616 
	C399.703278,548.918762 397.851257,546.362610 396.148621,543.277405 
	C400.044220,542.893616 401.774017,545.509033 403.362793,548.729492 
	C403.377197,549.330261 403.334229,549.569824 403.001617,550.031616 
z"/>
<path fill="#2524CE" opacity="1.000000" stroke="none" 
	d="
M522.194824,499.189575 
	C519.884094,501.547333 516.749207,502.573151 513.630859,504.282410 
	C513.280396,504.347778 513.127930,504.154968 513.050720,504.059326 
	C514.048706,499.730865 515.906494,498.484680 521.604980,498.643433 
	C521.925049,498.898529 522.104309,499.093109 522.194824,499.189575 
z"/>
<path fill="#1E1FC9" opacity="1.000000" stroke="none" 
	d="
M539.021545,439.894318 
	C541.911865,440.635284 544.110046,442.201904 546.362671,444.241333 
	C546.548584,444.786407 546.561523,445.048553 546.218933,445.479858 
	C542.668091,445.783813 540.449646,444.214325 538.724670,441.242645 
	C538.654114,440.618988 538.681335,440.365967 539.021545,439.894318 
z"/>
<path fill="#1E1FC9" opacity="1.000000" stroke="none" 
	d="
M481.983459,407.032959 
	C484.660522,408.038544 487.077759,409.300964 489.518616,411.053864 
	C486.201996,412.756470 483.878601,411.228821 481.807190,408.367828 
	C481.703644,407.776337 481.713654,407.533020 481.983459,407.032959 
z"/>
<path fill="#2524CE" opacity="1.000000" stroke="none" 
	d="
M549.371094,481.331665 
	C548.817932,483.134644 547.387512,484.142059 545.754517,485.359406 
	C545.192505,485.492157 544.933228,485.506012 544.549072,485.151001 
	C544.607727,482.385590 545.876526,481.011475 548.627930,480.841675 
	C548.984253,480.984619 549.242493,481.215607 549.371094,481.331665 
z"/>
<path fill="#1E1FC9" opacity="1.000000" stroke="none" 
	d="
M477.000977,404.526093 
	C478.746094,404.615448 480.306549,405.429626 482.055115,406.510010 
	C482.243256,406.776154 482.104126,406.910950 482.035278,406.979095 
	C479.518341,408.545441 477.983917,407.424103 477.000977,404.526093 
z"/>
<path fill="#1E1FC9" opacity="1.000000" stroke="none" 
	d="
M458.176636,392.810059 
	C459.804779,393.541565 461.345215,394.374512 463.057770,395.487091 
	C463.229858,395.766693 463.098297,395.904907 463.033081,395.974548 
	C460.335175,397.578125 458.836761,396.330292 457.859619,393.527100 
	C457.914612,393.115326 458.088959,392.911530 458.176636,392.810059 
z"/>
<path fill="#1E1FC9" opacity="1.000000" stroke="none" 
	d="
M494.678345,513.878174 
	C495.002014,514.082092 494.991028,514.522156 494.990845,514.742188 
	C493.945343,515.672791 492.900055,516.383301 491.293945,516.878235 
	C490.901154,514.407227 492.259247,513.593994 494.678345,513.878174 
z"/>
<path fill="#1E1FC9" opacity="1.000000" stroke="none" 
	d="
M393.958527,388.999115 
	C394.690308,387.622406 395.407715,386.288422 396.414673,384.799805 
	C396.704224,384.645203 396.866638,384.834930 396.948792,384.928955 
	C398.279175,387.461273 396.985474,388.585358 394.431763,389.172424 
	C394.026947,389.077484 393.944153,389.041840 393.958527,388.999115 
z"/>
<path fill="#1E1FC9" opacity="1.000000" stroke="none" 
	d="
M491.152344,517.148682 
	C490.169312,517.931641 489.106537,518.625916 487.731323,519.410156 
	C487.418884,519.500244 487.188660,519.220398 487.074097,519.080017 
	C486.942505,516.655212 488.415497,516.313782 490.575867,516.653687 
	C490.915009,516.880859 491.072632,517.059937 491.152344,517.148682 
z"/>
<path fill="#1E1FC9" opacity="1.000000" stroke="none" 
	d="
M446.126221,543.125854 
	C445.139374,543.904175 444.091095,544.614014 442.732117,545.413940 
	C442.421448,545.504028 442.202026,545.240540 442.093018,545.108215 
	C441.913116,542.620789 443.435486,542.329529 445.605774,542.679993 
	C445.943176,542.919495 446.064789,543.057434 446.126221,543.125854 
z"/>
<path fill="#1E1FC9" opacity="1.000000" stroke="none" 
	d="
M405.894165,552.112732 
	C404.913116,551.708923 403.979797,551.249878 402.879242,550.522339 
	C402.712006,550.253906 402.874054,550.105225 402.953979,550.029663 
	C404.613770,548.943787 405.492065,549.758728 406.092499,551.548706 
	C406.036591,551.946289 405.941925,552.057495 405.894165,552.112732 
z"/>
<path fill="#1E1FC9" opacity="1.000000" stroke="none" 
	d="
M474.081421,401.918091 
	C475.037354,402.332153 475.941895,402.807770 477.015991,403.542297 
	C477.185608,403.801270 477.072876,403.926758 477.017090,403.990021 
	C475.410187,405.052399 474.525330,404.266388 473.893677,402.499603 
	C473.928619,402.103821 474.029968,401.979584 474.081421,401.918091 
z"/>
<path fill="#080ACA" opacity="1.000000" stroke="none" 
	d="
M394.350708,539.381104 
	C393.600677,539.275757 393.206482,538.546448 392.803406,537.498901 
	C392.794525,537.180664 392.913300,537.082031 392.973297,537.033447 
	C394.452728,536.762146 394.618439,537.723022 394.350708,539.381104 
z"/>
<path fill="#1E1FC9" opacity="1.000000" stroke="none" 
	d="
M395.864563,543.132446 
	C395.465759,542.769897 395.129669,542.349304 394.780975,541.650330 
	C394.848175,541.166870 394.927979,540.961792 395.338593,540.767029 
	C396.303070,541.154602 396.549438,541.718079 396.261169,542.699585 
	C396.054047,542.960205 395.927216,543.074463 395.864563,543.132446 
z"/>
<path fill="#1E1FC9" opacity="1.000000" stroke="none" 
	d="
M506.282867,420.678894 
	C506.920410,420.778564 507.459595,420.992432 508.136108,421.466187 
	C508.273499,421.726044 508.122742,421.877411 508.049683,421.955322 
	C507.229828,422.583923 506.565033,422.449707 505.974487,421.406281 
	C505.986145,421.020294 506.184479,420.793121 506.282867,420.678894 
z"/>
<path fill="#1E1FC9" opacity="1.000000" stroke="none" 
	d="
M492.078339,412.572510 
	C492.970459,412.764435 493.489166,412.990723 494.145752,413.466858 
	C494.283600,413.716675 494.130920,413.871429 494.055542,413.949768 
	C493.313721,414.627441 492.650421,414.508270 491.817230,413.686951 
	C491.665497,413.105286 491.685211,412.856079 492.078339,412.572510 
z"/>
<path fill="#1E1FC9" opacity="1.000000" stroke="none" 
	d="
M547.170532,445.414185 
	C547.805359,445.596283 548.096741,445.804504 548.507324,446.257538 
	C548.619263,446.732971 548.612183,446.963623 548.276367,447.298828 
	C547.480835,447.332428 547.094299,447.117249 546.699585,446.425842 
	C546.683044,445.876282 546.755127,445.658264 547.170532,445.414185 
z"/>
<path fill="#1E1FC9" opacity="1.000000" stroke="none" 
	d="
M446.114868,385.885712 
	C446.495300,385.933044 446.819946,386.039307 447.276306,386.371399 
	C447.408051,386.597229 447.189972,386.813232 447.081665,386.921967 
	C446.530945,387.180695 446.166046,387.071503 445.914612,386.384277 
	C445.950592,386.065277 446.059052,385.944611 446.114868,385.885712 
z"/>
<path fill="#1E1FC9" opacity="1.000000" stroke="none" 
	d="
M489.997498,411.007324 
	C490.343811,411.084045 490.672516,411.184448 490.811829,411.734253 
	C490.416351,412.056915 490.210175,411.930115 489.974976,411.441376 
	C489.945953,411.079468 489.979828,411.031036 489.997498,411.007324 
z"/>
<path fill="#1E1FC9" opacity="1.000000" stroke="none" 
	d="
M491.154297,411.845093 
	C491.535919,411.891815 491.849304,412.007507 492.307220,412.330688 
	C492.451721,412.538147 492.225433,412.773987 492.110168,412.889832 
	C491.549377,413.180542 491.179108,413.079529 490.916870,412.377319 
	C490.949615,412.052094 491.086060,411.914093 491.154297,411.845093 
z"/>
<path fill="#1E1FC9" opacity="1.000000" stroke="none" 
	d="
M519.060364,427.940948 
	C519.434692,427.985718 519.766907,428.078033 520.247192,428.389160 
	C520.395203,428.607971 520.173279,428.829285 520.063782,428.941406 
	C519.519653,429.181702 519.162170,429.067657 518.909790,428.399384 
	C518.937927,428.086884 519.018250,427.988495 519.060364,427.940948 
z"/>
<path fill="#1E1FC9" opacity="1.000000" stroke="none" 
	d="
M538.067688,438.933685 
	C538.434570,438.996338 538.758240,439.106201 539.208252,439.445892 
	C539.334473,439.675720 539.157471,439.845398 539.070251,439.931580 
	C538.543945,440.189606 538.183472,440.075806 537.916443,439.398163 
	C537.942688,439.079010 538.024536,438.980865 538.067688,438.933685 
z"/>
<path fill="#1E1FC9" opacity="1.000000" stroke="none" 
	d="
M546.398071,444.642578 
	C546.857849,444.566315 547.118408,444.715851 547.415649,445.180481 
	C547.513977,445.388031 547.263733,445.702148 547.130493,445.852417 
	C546.536133,446.170837 546.158875,446.058228 545.929382,445.335632 
	C545.993347,445.006531 546.260498,444.760864 546.398071,444.642578 
z"/>
<path fill="#1E1FC9" opacity="1.000000" stroke="none" 
	d="
M548.467651,446.623230 
	C548.951294,446.605011 549.184082,446.811462 549.371704,447.356445 
	C549.460266,447.813721 549.502014,448.036255 549.213501,448.335327 
	C548.431641,448.299194 548.076172,448.053619 547.917480,447.325256 
	C548.001221,446.998535 548.308838,446.744141 548.467651,446.623230 
z"/>
<path fill="#1E1FC9" opacity="1.000000" stroke="none" 
	d="
M549.311401,447.694641 
	C549.677795,447.797516 549.937012,448.003876 550.245361,448.461975 
	C550.294556,448.713745 550.126953,448.873047 550.042725,448.952271 
	C549.497559,449.171814 549.133057,449.032379 548.922241,448.328827 
	C548.992188,448.007477 549.204285,447.798157 549.311401,447.694641 
z"/>
<path fill="#2524CE" opacity="1.000000" stroke="none" 
	d="
M545.332520,485.349640 
	C545.231567,485.723206 545.011353,485.968079 544.540771,486.256226 
	C544.290344,486.299469 544.121216,486.119965 544.037415,486.029541 
	C543.826965,485.487640 543.966736,485.130524 544.653809,484.911621 
	C544.970093,484.967987 545.213257,485.220947 545.332520,485.349640 
z"/>
<path fill="#080ACA" opacity="1.000000" stroke="none" 
	d="
M394.805939,541.243774 
	C394.504181,541.108765 394.239960,540.845520 393.985291,540.293701 
	C393.994873,540.005066 394.020844,539.983093 394.033997,539.972412 
	C394.469269,539.807983 394.813080,539.912354 395.020386,540.575439 
	C394.962067,540.876343 394.843475,541.115662 394.805939,541.243774 
z"/>
<path fill="#2222FD" opacity="1.000000" stroke="none" 
	d="
M395.196716,541.072510 
	C394.896667,540.562927 394.735260,540.310913 394.262512,540.041077 
	C393.872253,539.114441 393.697357,538.267151 393.277863,537.202393 
	C390.430054,492.035675 392.616577,447.045471 391.839630,402.081390 
	C391.765991,397.820374 393.888184,394.059540 393.998077,389.484741 
	C395.539215,388.406982 396.397217,387.178528 396.980621,385.347961 
	C403.374451,379.172913 410.030182,374.389954 419.437897,374.900085 
	C425.420105,375.224426 430.141327,378.030457 435.088440,380.687469 
	C438.444794,382.490143 441.855560,384.191498 445.596313,386.001709 
	C446.059448,386.384064 446.254883,386.635590 446.755127,386.925293 
	C449.923248,389.814484 453.601196,391.344879 457.566162,393.048187 
	C458.966492,394.692627 460.557617,395.432343 462.633575,395.991241 
	C465.771851,399.073792 469.230133,400.987671 473.560913,402.072357 
	C474.435364,403.104706 475.221466,403.741211 476.648621,404.001343 
	C477.877930,405.809326 479.600281,406.353882 481.631775,406.992065 
	C483.784973,409.459961 486.418091,410.395813 489.578217,411.061218 
	C490.032562,411.409729 490.221832,411.663422 490.731689,411.946289 
	C491.078033,412.360443 491.280823,412.607880 491.776459,412.900024 
	C492.464478,413.317688 492.934021,413.629700 493.691864,413.984894 
	C497.145142,417.312378 501.421326,418.773041 505.634277,420.967651 
	C506.456757,421.333435 506.927368,421.646606 507.687286,421.996521 
	C510.813232,425.003082 514.168640,427.085602 518.569275,428.048950 
	C519.035339,428.412384 519.228149,428.665131 519.735352,428.949280 
	C525.238159,433.178925 530.941284,436.573944 537.582153,439.021027 
	C538.058044,439.394257 538.259766,439.638092 538.765381,439.914124 
	C540.568604,442.328918 543.165894,443.271210 545.683350,444.873718 
	C546.112488,445.317169 546.305054,445.572357 546.784180,445.887390 
	C547.123230,446.308197 547.317566,446.561249 547.790771,446.880157 
	C548.124084,447.305023 548.315735,447.559814 548.784180,447.885193 
	C549.098022,448.322327 549.279358,448.585083 549.747314,448.913574 
	C551.133972,452.831421 553.921875,456.047455 554.052673,460.635071 
	C554.626831,468.004974 553.486328,474.559387 549.125916,480.665039 
	C547.751038,482.128876 546.517761,483.273132 545.127319,484.692688 
	C544.665955,485.089142 544.410339,485.276550 544.078491,485.734650 
	C539.416931,486.887207 536.355774,490.438782 532.202942,492.713257 
	C528.283691,493.914337 525.381348,496.283020 522.117371,498.623291 
	C518.824341,499.946259 515.841370,501.220428 513.145630,503.670502 
	C506.797058,506.550659 501.202240,510.201569 495.221619,513.815308 
	C493.757935,514.842102 492.513885,515.602112 491.092407,516.621460 
	C489.738586,517.404419 488.562195,517.927917 487.172668,518.695557 
	C483.316711,519.991028 480.340912,522.231567 477.129333,524.649414 
	C469.734985,528.112793 462.975037,532.111023 456.191650,536.707764 
	C452.281372,537.916382 449.181549,539.941528 446.116638,542.630859 
	C444.759796,543.437012 443.576416,543.954468 442.188507,544.723877 
	C438.901794,545.414673 436.510376,547.391907 434.123260,549.025818 
	C425.477112,554.943848 416.409454,555.463562 406.430847,551.977661 
	C405.561523,550.917725 404.778351,550.275696 403.347473,550.003418 
	C400.903412,547.722290 398.772980,545.490601 396.348267,543.109497 
	C395.846466,542.396362 395.638916,541.832458 395.196716,541.072510 
z"/>
</svg>