<svg version="1.1" id="Layer_1" xmlns="http://www.w3.org/2000/svg" xmlns:xlink="http://www.w3.org/1999/xlink" x="0px" y="0px"
	 width="100%" viewBox="0 0 800 800" enable-background="new 0 0 800 800" xml:space="preserve">
<path fill="#FFFFFF" opacity="1.000000" stroke="none" 
	d="
M449.000000,801.000000 
	C300.833344,801.000000 153.166656,800.983459 5.500071,801.094055 
	C1.750608,801.096863 0.905242,800.249146 0.906701,796.499939 
	C1.009313,532.833313 1.009313,269.166656 0.906701,5.500036 
	C0.905242,1.750842 1.750842,0.905244 5.500036,0.906702 
	C269.166656,1.009302 532.833313,1.009302 796.499939,0.906703 
	C800.249146,0.905244 801.094788,1.750842 801.093323,5.500036 
	C800.990723,269.166656 800.990662,532.833313 801.093323,796.499939 
	C801.094788,800.249146 800.249573,801.098267 796.499878,801.094482 
	C680.833313,800.978943 565.166687,801.000000 449.000000,801.000000 
z"/>
<path fill="#903B91" opacity="1.000000" stroke="none" 
	d="
M625.203613,307.405334 
	C621.883057,305.047791 622.037964,301.428406 621.080261,298.466248 
	C614.949219,279.503662 604.341919,263.204163 591.619751,248.137878 
	C574.720032,228.124176 555.005249,211.350113 532.885620,197.364868 
	C511.238831,183.678497 488.299927,173.073563 463.012634,168.081772 
	C460.531982,167.592087 457.581238,168.978348 455.344727,166.015854 
	C446.007446,156.606339 439.145844,145.737366 431.822968,135.264603 
	C414.287415,110.186134 397.140381,84.838661 381.991730,58.208569 
	C378.041138,51.263771 374.714600,44.001007 371.125366,36.872288 
	C370.453400,35.537579 369.841766,34.136089 370.687500,32.270668 
	C376.387512,30.233498 382.177582,30.346647 387.778412,30.163820 
	C402.587738,29.680401 417.454071,29.396767 432.240631,30.151606 
	C451.033813,31.110975 469.689545,33.653282 488.160461,37.526100 
	C512.133301,42.552505 535.451111,49.693874 558.000000,59.146523 
	C575.798462,66.607773 592.894836,75.579193 609.292969,85.809822 
	C626.409790,96.488876 642.453186,108.563408 657.575989,121.952583 
	C676.313477,138.542007 693.141418,156.801239 707.996460,176.921875 
	C721.152222,194.740952 732.261658,213.777954 741.375610,233.924301 
	C751.735291,256.824371 759.716736,280.499695 764.120911,305.368225 
	C766.761475,320.277954 768.598694,335.172180 769.249390,350.319794 
	C769.546997,357.246216 769.759705,364.185944 769.891724,371.587708 
	C767.765747,375.391632 765.083069,373.459961 762.751221,372.719574 
	C746.086609,367.428406 729.790710,361.117920 713.666382,354.388031 
	C687.709229,343.554138 661.923706,332.331604 638.002380,317.340576 
	C633.528503,314.536865 628.576721,312.280212 625.203613,307.405334 
z"/>
<path fill="#BE2F5D" opacity="1.000000" stroke="none" 
	d="
M436.685730,609.526550 
	C469.624573,607.290527 499.348206,596.715576 527.011536,579.598328 
	C540.708984,571.122681 553.184631,561.224731 565.157349,550.479980 
	C589.139282,528.957825 607.902954,503.572998 621.580566,474.575470 
	C628.929932,458.994263 634.002136,442.538666 636.171631,425.213593 
	C637.315796,416.076385 636.499878,407.015411 637.095581,397.473816 
	C639.267151,395.331665 641.322388,396.581970 643.305420,397.217133 
	C668.981812,405.440979 694.605530,413.829041 720.227966,422.217865 
	C733.989136,426.723267 747.867371,430.865692 761.548218,435.614624 
	C763.569031,436.316101 765.778809,436.677185 767.568909,438.712982 
	C767.176514,456.042358 765.052612,472.880524 760.815613,489.404907 
	C755.951416,508.375763 748.934937,526.588135 739.923584,543.931458 
	C728.914551,565.119507 715.751953,584.938416 700.327942,603.240540 
	C691.493103,613.723938 682.734802,624.295288 672.727417,633.659973 
	C656.072449,649.245361 638.727417,663.982117 619.987366,677.126343 
	C599.199768,691.706848 577.276489,704.253540 554.281494,714.772217 
	C530.009705,725.874817 504.747742,734.258850 478.360962,739.131836 
	C462.642944,742.034607 446.930267,744.242737 430.461426,743.904114 
	C428.303162,742.059265 428.551941,739.865967 428.693054,737.705200 
	C429.884674,719.458984 430.405060,701.174500 431.546326,682.931396 
	C432.968109,660.204224 433.357971,637.421875 435.347900,614.729492 
	C435.492706,613.078186 435.515533,611.391235 436.685730,609.526550 
z"/>
<path fill="#FA9F25" opacity="1.000000" stroke="none" 
	d="
M55.521198,554.073608 
	C54.277008,543.592163 54.467045,533.123230 53.844086,522.725281 
	C52.062035,492.980774 53.494030,463.236206 53.029610,433.497986 
	C52.714348,413.310791 54.211933,393.158752 56.174301,373.119720 
	C59.951813,334.545013 66.723297,296.517914 79.909538,259.838074 
	C90.661430,229.929855 105.219307,202.105042 124.016357,176.492508 
	C131.128433,166.801727 138.852905,157.625702 146.753632,148.556564 
	C154.189072,140.021500 162.420914,132.321701 170.309113,124.264290 
	C174.127029,120.364456 178.335114,116.846611 182.673645,113.011581 
	C188.833817,113.277992 192.219009,117.821884 196.145920,121.150002 
	C221.272537,142.445099 243.632324,166.622131 266.806885,189.933151 
	C271.719055,194.874268 277.541382,199.436844 280.206055,206.670563 
	C274.521698,213.567886 267.339783,218.392319 261.023438,224.168350 
	C248.157440,235.933823 236.909744,248.996735 227.350830,263.427948 
	C211.109329,287.948059 201.185287,315.061523 195.980911,343.957245 
	C193.332565,358.661469 191.858643,373.459808 190.844604,388.381134 
	C189.151627,413.292816 190.636322,438.195190 189.903214,463.555908 
	C186.804245,467.291077 182.555893,468.641998 178.830231,470.739746 
	C147.011993,488.655060 117.425476,509.924011 87.709961,531.003784 
	C78.753181,537.357605 69.985031,543.966553 61.335243,550.734070 
	C59.648457,552.053833 58.046158,553.571716 55.521198,554.073608 
z"/>
<path fill="#EE5823" opacity="1.000000" stroke="none" 
	d="
M55.095440,554.466187 
	C70.534653,541.934021 86.252808,530.345642 102.268532,519.145386 
	C124.547485,503.565216 146.864044,488.048767 170.289352,474.214996 
	C176.428116,470.589752 182.544556,466.887085 189.485474,464.054077 
	C189.890457,488.014740 189.398010,512.024048 190.104416,535.998047 
	C192.081436,603.094666 190.365784,670.197632 191.027649,737.293396 
	C191.051483,739.710205 192.552856,743.376343 191.499573,744.276184 
	C189.318161,746.139954 185.789597,744.796509 182.824890,744.981445 
	C181.164902,745.084961 179.491714,745.045959 177.826935,744.993225 
	C138.238464,743.739929 98.637085,743.958069 59.039036,744.099609 
	C55.084385,744.113770 54.945744,742.468872 54.949516,739.404907 
	C55.025253,677.913330 55.016350,616.421692 55.095440,554.466187 
z"/>
<path fill="#E83A5D" opacity="1.000000" stroke="none" 
	d="
M280.438171,206.886536 
	C276.076080,200.700302 270.638550,195.504623 265.492096,190.195114 
	C248.463516,172.626938 231.268631,155.198181 213.574341,138.305893 
	C204.166718,129.324661 194.812469,120.097847 183.290115,113.028725 
	C192.189911,104.251350 202.018768,96.418678 212.752365,89.785324 
	C234.706772,76.217537 257.597504,64.536636 281.482727,54.667118 
	C300.164307,46.947777 319.134094,40.312984 338.784607,35.635860 
	C349.026917,33.198032 359.364960,31.405502 370.426147,31.977318 
	C373.317139,40.850727 378.057098,48.731174 382.490265,56.617210 
	C395.048309,78.956413 409.207733,100.318153 423.726013,121.430542 
	C432.891541,134.758972 442.132263,148.033752 451.867188,160.961746 
	C452.897644,162.330215 455.265442,162.787552 454.992493,165.476212 
	C447.380707,166.473984 440.081512,163.970978 432.523010,163.579712 
	C423.111084,163.092468 413.800201,162.776779 404.389008,163.694031 
	C397.212036,164.393524 390.035126,164.874237 382.873444,165.912033 
	C362.165771,168.912750 342.097900,174.186295 322.741608,182.082794 
	C307.569824,188.272217 293.376068,196.202393 280.438171,206.886536 
z"/>
<path fill="#EA444A" opacity="1.000000" stroke="none" 
	d="
M422.331390,500.516022 
	C369.131897,504.265411 319.419525,466.820618 302.222900,419.481781 
	C303.747253,415.849823 307.159149,415.449066 310.059723,414.536896 
	C327.690796,408.992279 345.586578,404.431885 363.674500,400.634796 
	C370.514771,399.198853 377.370758,397.834900 384.237488,396.532288 
	C387.241730,395.962402 388.727753,394.842743 387.379272,391.463898 
	C375.595245,361.937561 363.659882,332.485718 347.890472,304.773621 
	C346.231720,301.858673 343.746582,299.572449 342.016296,296.302795 
	C356.167206,285.134338 371.853271,277.589752 389.381104,273.845581 
	C403.847961,270.755341 418.185669,270.329620 432.884308,272.772736 
	C452.564148,276.043762 470.005035,283.789673 485.692444,295.870605 
	C507.511017,312.673157 520.769348,334.862610 526.981934,361.481995 
	C528.869629,369.570160 529.283569,377.783020 528.894836,386.513550 
	C527.680725,387.983734 526.323730,387.686401 525.019348,387.541504 
	C504.919647,385.308563 484.880646,386.452148 464.805206,388.192963 
	C443.409027,390.048279 422.176666,393.002960 400.997894,396.452820 
	C399.683990,396.666840 398.381256,396.966248 397.062683,397.125305 
	C393.835602,397.514526 393.294037,399.263306 394.382416,402.023254 
	C395.236816,404.189880 396.136047,406.340271 396.934174,408.528107 
	C405.486633,431.971649 414.041168,455.414856 420.143219,479.658234 
	C421.240570,484.017883 422.068085,488.434082 422.896820,492.848663 
	C423.357483,495.302551 423.776978,497.785675 422.331390,500.516022 
z"/>
<path fill="#EE5823" opacity="1.000000" stroke="none" 
	d="
M436.573608,609.095825 
	C436.007996,625.831238 434.700287,642.485596 434.158661,659.164856 
	C433.878998,667.778015 433.171967,676.370056 433.058075,684.977051 
	C432.930817,694.593872 432.280670,704.205078 431.708191,713.770813 
	C431.126556,723.489380 431.422333,733.284241 429.998779,743.394409 
	C429.335205,743.888000 428.673126,743.973022 428.009125,743.992737 
	C383.918732,745.299438 339.805023,744.410767 295.720795,745.265015 
	C277.287781,745.622192 258.851837,745.608093 240.421387,745.995667 
	C238.860199,746.028503 237.297714,746.000000 234.321747,746.000000 
	C242.292496,741.718628 249.000000,738.248718 255.114120,733.585754 
	C269.721161,722.445679 280.989655,708.521973 290.439758,693.012939 
	C299.900665,677.486328 306.934875,660.868225 311.290802,643.199463 
	C313.164429,635.599548 314.220245,627.847412 315.214203,620.049255 
	C316.509094,609.890442 315.477386,600.181152 313.141235,590.408081 
	C312.706421,588.588867 312.962311,587.551453 315.437683,588.744141 
	C334.188049,597.778198 354.242554,602.712891 374.520264,606.637695 
	C383.326172,608.342163 392.253845,609.681213 401.300568,610.138184 
	C406.391876,610.395325 411.473267,610.974060 416.599945,611.046570 
	C423.214111,611.140198 429.642059,609.773865 436.573608,609.095825 
z"/>
<path fill="#BE2F5D" opacity="1.000000" stroke="none" 
	d="
M422.500244,500.910461 
	C421.375366,484.943481 416.218262,470.067444 411.566437,455.076202 
	C406.019623,437.200806 399.752350,419.576660 392.915985,402.157898 
	C391.401062,398.297913 390.733765,396.353546 396.501495,395.697479 
	C410.902222,394.059387 425.123810,390.838562 439.526276,389.226654 
	C451.821503,387.850616 464.176758,386.757965 476.528229,385.763336 
	C489.165863,384.745697 501.753143,385.420959 514.352661,384.984406 
	C519.026917,384.822449 523.549683,385.755981 528.437378,386.922729 
	C529.752197,412.398560 522.109314,435.012726 507.130920,455.495453 
	C496.234802,470.395782 482.273132,481.421265 465.934448,489.429993 
	C452.435455,496.046783 438.207062,500.620239 422.500244,500.910461 
z"/>
<path fill="#E83A5D" opacity="1.000000" stroke="none" 
	d="
M767.919800,438.591919 
	C747.850037,432.489838 727.881042,425.924438 707.878662,419.462341 
	C684.576904,411.934357 661.245911,404.496765 637.546875,397.015259 
	C636.378113,394.000732 638.118042,391.292267 638.093628,388.285889 
	C637.936157,368.890625 634.713806,349.924591 630.516785,331.084473 
	C628.791199,323.338348 626.840637,315.642334 624.976074,307.519470 
	C640.466064,318.245026 657.044495,327.553711 674.300049,335.621979 
	C703.849609,349.438507 733.880493,362.093201 764.969482,372.102905 
	C766.376099,372.555756 767.696289,373.490875 769.497009,372.211914 
	C769.875854,388.778442 770.403748,405.522095 769.723022,422.216492 
	C769.510010,427.439697 770.132690,433.041534 767.919800,438.591919 
z"/>
<path fill="#FA9F25" opacity="1.000000" stroke="none" 
	d="
M341.644653,296.054932 
	C347.549347,299.770508 350.107056,305.860321 353.119110,311.509674 
	C367.012299,337.567352 378.117096,364.873993 389.169098,392.213287 
	C391.386780,397.699280 387.429382,397.398193 384.774750,397.886261 
	C366.574066,401.232483 348.514801,405.179810 330.649719,410.004913 
	C321.235382,412.547607 311.788361,414.996552 302.445862,418.958740 
	C300.679657,405.646545 299.578491,392.147430 299.988007,378.559418 
	C300.663574,356.143402 307.175690,335.857117 321.284821,318.136719 
	C327.483856,310.351013 334.186584,303.079773 341.644653,296.054932 
z"/>
</svg>