<svg version="1.1" id="Layer_1" xmlns="http://www.w3.org/2000/svg" xmlns:xlink="http://www.w3.org/1999/xlink" x="0px" y="0px"
	 width="100%" viewBox="0 0 313 250" enable-background="new 0 0 313 250" xml:space="preserve">
<path fill="#000000" opacity="1.000000" stroke="none" 
	d="
M1.224380,236.301636 
	C1.000000,162.645767 1.000000,89.291542 1.000000,15.468657 
	C3.545609,6.944876 8.159753,1.393611 17.702286,1.223773 
	C110.687561,1.000000 203.375122,1.000000 296.531342,1.000000 
	C300.370209,2.046513 304.090057,1.719674 307.112213,4.207027 
	C311.022491,7.425343 313.423584,11.259739 313.774506,16.694906 
	C314.000000,89.687561 314.000000,162.375122 314.000000,235.531342 
	C312.828400,239.009125 312.490570,242.300446 310.170288,244.909225 
	C306.770966,248.731140 302.689728,250.668900 297.301361,250.775421 
	C204.312439,251.000000 111.624878,251.000000 18.468658,251.000000 
	C14.240487,250.110336 10.259425,250.046890 7.111645,247.176773 
	C3.929043,244.274918 1.872636,240.912888 1.224380,236.301636 
z"/>
<path fill="#FFFFFF" opacity="1.000000" stroke="none" 
	d="
M314.000000,16.528801 
	C311.529175,12.358398 310.232605,7.035133 304.911469,4.212782 
	C302.403259,2.882422 299.892303,2.268334 297.120667,1.372541 
	C297.657593,1.000000 298.315186,1.000000 298.972778,1.000000 
	C303.904724,1.000000 311.006683,-0.941076 313.198822,1.509649 
	C315.727173,4.336266 313.922852,11.038403 314.000000,16.528801 
z"/>
<path fill="#FFFFFF" opacity="1.000000" stroke="none" 
	d="
M1.000000,236.472656 
	C3.975535,239.548126 4.511697,244.685730 9.316179,247.212219 
	C12.085621,248.668564 14.747917,249.772369 17.879313,250.627457 
	C17.014137,251.000000 16.028275,251.000000 15.042411,251.000000 
	C10.441716,251.000000 3.814074,252.811050 1.771705,250.525223 
	C-0.591529,247.880280 1.080109,241.630203 1.000000,236.472656 
z"/>
<path fill="#FFFFFF" opacity="1.000000" stroke="none" 
	d="
M297.470459,251.000000 
	C302.411652,248.892502 308.250580,247.400040 311.025482,241.440536 
	C311.828094,239.716705 312.537262,237.949371 313.644653,236.100983 
	C314.000000,240.930008 315.939819,248.056717 313.493744,250.216736 
	C310.636047,252.740280 303.951263,250.930267 298.926910,250.999405 
	C298.598297,251.003937 298.269592,251.000000 297.470459,251.000000 
z"/>
<path fill="#FFFFFF" opacity="1.000000" stroke="none" 
	d="
M17.529547,1.000000 
	C12.547411,3.108733 6.874053,4.760192 3.783925,10.564721 
	C3.038197,11.965504 3.471713,13.960670 1.353187,14.911526 
	C1.000000,10.400794 -0.809192,3.726847 1.469011,1.740234 
	C4.170005,-0.615057 10.391989,1.066363 15.088023,1.001258 
	C15.744926,0.992151 16.402065,1.000000 17.529547,1.000000 
z"/>
<path fill="#FFFFFF" opacity="1.000000" stroke="none" 
	d="
M64.220924,78.505104 
	C65.664818,76.455856 67.456741,77.029335 69.052086,77.020790 
	C77.381828,76.976219 85.735329,76.601410 94.036736,77.088493 
	C108.384308,77.930344 120.590927,88.221542 120.932434,104.198029 
	C121.249237,119.018639 120.976364,133.851379 121.006531,148.678696 
	C121.037766,164.031723 108.844505,175.786362 94.309189,176.265457 
	C86.070427,176.536987 77.806541,176.682083 69.559807,177.025284 
	C65.498253,177.194290 63.864548,175.883316 63.895096,171.392380 
	C64.104729,140.572937 64.019684,109.751488 64.220924,78.505104 
z"/>
<path fill="#FFFFFF" opacity="1.000000" stroke="none" 
	d="
M196.018387,121.831734 
	C192.564011,108.035103 189.302048,94.610291 185.577942,81.314926 
	C184.487595,77.422302 186.008392,76.969734 189.019272,76.994637 
	C192.018005,77.019432 195.087082,77.409607 198.000977,76.911743 
	C203.474091,75.976624 205.636185,78.768806 206.806244,83.450020 
	C211.557861,102.460609 216.382919,121.452858 221.209320,140.444641 
	C221.262741,140.654861 221.696030,140.768555 222.450333,141.236389 
	C225.328705,129.984619 228.138382,118.891006 231.009369,107.813271 
	C233.304886,98.956039 235.694656,90.123253 238.001312,81.268860 
	C238.809082,78.168083 240.421371,76.635445 243.919968,76.924339 
	C247.891510,77.252289 251.911057,76.980118 255.909470,77.008286 
	C258.511688,77.026619 259.378204,78.142494 258.653748,80.813225 
	C252.224472,104.514946 245.791748,128.216492 239.562225,151.971130 
	C237.934555,158.177795 236.964874,164.444107 233.083710,169.929062 
	C227.077621,178.416977 217.024368,178.303268 210.881882,169.847305 
	C206.489868,163.801102 205.842621,156.776337 203.976547,150.015152 
	C201.415817,140.737183 198.689697,131.504837 196.018387,121.831734 
z"/>
<path fill="#FFFFFF" opacity="1.000000" stroke="none" 
	d="
M153.143890,158.000000 
	C160.452164,158.000000 167.281097,158.123535 174.101837,157.940674 
	C176.925110,157.864990 178.395386,158.240753 178.077286,161.615128 
	C177.735077,165.245407 177.796585,168.947784 178.063110,172.590820 
	C178.283401,175.601639 176.845276,176.997803 174.243958,176.942245 
	C161.850967,176.677505 149.401794,178.024902 137.073853,175.945419 
	C131.627777,175.026779 128.003464,170.227280 128.002258,164.474823 
	C127.997017,139.503006 127.996346,114.531181 128.002426,89.559364 
	C128.004059,82.847214 133.519562,77.078918 140.213379,77.024673 
	C151.366730,76.934296 162.522446,77.087486 173.674713,76.945045 
	C176.882828,76.904068 178.000961,77.912041 178.072250,81.217285 
	C178.391083,96.002045 178.485062,96.000008 163.760849,96.000000 
	C158.109283,95.999992 152.457718,96.000000 146.988754,96.000000 
	C146.988754,102.311707 147.482635,108.525398 146.794647,114.605354 
	C146.411316,117.992966 147.561325,118.037064 149.939499,118.012604 
	C154.267471,117.968063 158.600632,118.116180 162.922928,117.953209 
	C165.223923,117.866455 166.201752,118.411591 166.054398,120.933632 
	C165.841125,124.583710 165.872849,128.261307 166.039688,131.916229 
	C166.175430,134.889496 165.144684,136.181458 162.036011,136.044998 
	C157.882050,135.862686 153.713776,136.028763 149.552185,135.989288 
	C147.208542,135.967072 146.495224,136.320175 146.800125,139.279922 
	C147.423523,145.331467 146.987015,151.492188 146.987015,158.000000 
	C148.407730,158.000000 150.534500,158.000000 153.143890,158.000000 
z"/>
<path fill="#000000" opacity="1.000000" stroke="none" 
	d="
M88.880150,158.000000 
	C82.000107,157.999084 82.000031,157.999084 82.000015,151.436569 
	C81.999977,134.315338 82.074974,117.193489 81.931358,100.073463 
	C81.905304,96.966827 82.505264,95.424774 85.924118,95.961685 
	C87.384140,96.190971 88.939217,96.190590 90.401260,95.967690 
	C97.496696,94.885902 102.832954,99.820343 102.952789,107.971031 
	C103.133591,120.269051 103.324165,132.583344 102.882797,144.868179 
	C102.601540,152.696686 100.319916,158.295715 88.880150,158.000000 
z"/>
</svg>